#VRML V2.0 utf8
# 3D model generated by easyeda2kicad.py (https://github.com/uPesy/easyeda2kicad.py)

Shape{
    appearance Appearance {
        material  Material 	{
            diffuseColor 0.2235294117647059 0.2235294117647059 0.2235294117647059
            specularColor 0.11372549019607843 0.11372549019607843 0.11372549019607843
            ambientIntensity 0.2
            transparency 0
            shininess 0.5
        }
    }
    geometry IndexedFaceSet {
        ccw TRUE
        solid FALSE
        coord DEF co Coordinate {
            point [
                -2.6918 -0.677 0.0, -2.699 -0.6381 0.0, -0.5752 -0.6381 0.0, -0.9296 -0.1528 0.0, -0.9251 -0.1191 0.0, -0.5752 -0.1191 0.0, -0.193 -0.484 0.0, -0.2362 -0.484 0.0, -0.2386 -0.4672 0.0, 0.1599 -0.4672 0.0, 0.1599 -0.6381 0.0, 0.1575 -0.6328 0.0, 0.1575 -0.6381 0.0, -0.2386 -0.6381 0.0, 0.1575 -0.6856 0.0, 0.1599 -1.2089 0.0, -0.2362 -0.6856 0.0, -0.1258 0.8109 0.0, -0.1258 0.7495 0.0, -0.2362 0.8508 0.0, -0.2386 0.7495 0.0, -0.2362 0.9084 0.0, -0.2046 1.8504 0.0, -0.167 1.8015 0.0, 0.1575 0.7548 0.0, -0.1181 1.7639 0.0, -0.0611 1.7403 0.0, -0.1181 2.1731 0.0, -0.167 2.1355 0.0, -0.2386 2.7643 0.0, 0.0 1.7323 0.0, 0.0611 1.7403 0.0, 0.1599 0.7495 0.0, 0.1181 1.7639 0.0, 0.1599 1.796 0.0, 0.1599 2.141 0.0, 0.1181 2.1731 0.0, 0.1599 2.7674 0.0, 0.0611 2.1967 0.0, 0.0855 2.7743 0.0, 0.0 2.2047 0.0, -0.0611 2.1967 0.0, -0.2046 2.0866 0.0, -0.2282 2.0296 0.0, -0.2362 1.9685 0.0, -0.2282 1.9074 0.0, -0.2362 0.3145 0.0, -0.2362 0.2074 0.0, -0.2386 0.169 0.0, -0.0871 0.5188 0.0, -0.1283 0.5046 0.0, -0.2362 0.5531 0.0, -0.1258 0.6483 0.0, -0.2362 0.6107 0.0, -0.1635 0.4821 0.0, -0.1946 0.4497 0.0, -0.2184 0.4085 0.0, 0.1599 0.169 0.0, 0.1575 0.7019 0.0, 0.1575 0.7495 0.0, 0.0643 0.4997 0.0, 0.0259 0.5162 0.0, -0.0151 0.5236 0.0, -0.0344 0.5243 0.0, 0.1352 0.4215 0.0, 0.1099 0.4605 0.0, 0.0956 0.4758 0.0, 0.1575 0.2074 0.0, 0.1575 0.3185 0.0, 0.1514 0.3754 0.0, -0.9094 0.0 0.0, -0.9296 0.1528 0.0, -0.5752 0.169 0.0, -0.9886 -0.2953 0.0, -1.7953 -0.5114 0.0, -1.853 -0.4672 0.0, -2.731 -0.4672 0.0, -1.9176 -0.4176 0.0, -1.2047 -0.5114 0.0, -0.5752 -0.4672 0.0, -1.147 -0.4672 0.0, -1.0824 -0.4176 0.0, -1.6528 -0.5704 0.0, -1.5 -0.5906 0.0, -1.3472 -0.5704 0.0, -0.9363 0.169 0.0, -0.9886 0.2953 0.0, -0.5752 0.7495 0.0, -1.0824 0.4176 0.0, -1.2047 0.5114 0.0, -1.3472 0.5704 0.0, -1.5 0.5906 0.0, -1.6528 0.5704 0.0, -2.6687 0.7495 0.0, -1.7953 0.5114 0.0, -1.9176 0.4176 0.0, -2.6918 0.677 0.0, -2.0114 0.2953 0.0, -2.7546 0.3411 0.0, -2.0637 0.169 0.0, -2.7652 0.169 0.0, -2.0704 0.1528 0.0, -2.7756 0.0 0.0, -2.0906 0.0 0.0, -2.7682 -0.1191 0.0, -2.0749 -0.1191 0.0, -2.7546 -0.3411 0.0, -2.0704 -0.1528 0.0, -2.0114 -0.2953 0.0, 2.0749 -0.1191 0.0, 2.0906 0.0 0.0, 2.7756 0.0 0.0, 2.7704 0.169 0.0, 2.7719 -0.1191 0.0, 2.7703 -0.1709 0.0, 2.0704 -0.1528 0.0, 2.7336 -0.4672 0.0, 2.0114 -0.2953 0.0, 1.2047 -0.5114 0.0, 0.5728 -0.6381 0.0, 1.147 -0.4672 0.0, 0.5728 -0.4672 0.0, 1.0824 -0.4176 0.0, 1.3472 -0.5704 0.0, 1.5 -0.5906 0.0, 2.6961 -0.6381 0.0, 1.6528 -0.5704 0.0, 1.7953 -0.5114 0.0, 2.7283 -0.51 0.0, 1.853 -0.4672 0.0, 1.9176 -0.4176 0.0, 0.5728 -0.1191 0.0, 0.9251 -0.1191 0.0, 0.9296 -0.1528 0.0, 0.9886 -0.2953 0.0, 0.5728 0.169 0.0, 0.9296 0.1528 0.0, 0.9094 0.0 0.0, 2.0704 0.1528 0.0, 2.0637 0.169 0.0, 2.7703 0.1709 0.0, 2.6681 0.7495 0.0, 1.7953 0.5114 0.0, 1.6528 0.5704 0.0, 1.2047 0.5114 0.0, 0.5728 0.7495 0.0, 1.3472 0.5704 0.0, 1.5 0.5906 0.0, 1.0824 0.4176 0.0, 0.9886 0.2953 0.0, 0.9363 0.169 0.0, 2.7283 0.51 0.0, 2.0114 0.2953 0.0, 1.9176 0.4176 0.0, 0.5728 -1.2089 0.0, 0.2046 -1.8504 0.0, 0.167 -1.8015 0.0, 0.2046 -2.0866 0.0, 0.2282 -2.0296 0.0, 0.5728 -2.4902 0.0, 0.2362 -1.9685 0.0, 0.2282 -1.9074 0.0, 0.0611 -2.1967 0.0, 0.1181 -2.1731 0.0, 0.1599 -2.4902 0.0, 0.1599 -2.141 0.0, 0.167 -2.1355 0.0, -0.0 -1.7323 0.0, -0.0611 -1.7403 0.0, -0.2386 -1.2089 0.0, 0.1599 -1.796 0.0, 0.1181 -1.7639 0.0, 0.0611 -1.7403 0.0, -0.1181 -1.7639 0.0, -0.167 -1.8015 0.0, -0.2046 -1.8504 0.0, -0.2386 -2.4902 0.0, -0.0611 -2.1967 0.0, -0.0 -2.2047 0.0, -0.2362 -0.6381 0.0, -0.2282 -1.9074 0.0, -0.2362 -1.9685 0.0, -0.2282 -2.0296 0.0, -0.2046 -2.0866 0.0, -0.167 -2.1355 0.0, -0.1181 -2.1731 0.0, 0.167 1.8015 0.0, 0.2362 1.9685 0.0, 0.2282 2.0296 0.0, 0.5728 2.7105 0.0, 0.2046 2.0866 0.0, 0.167 2.1355 0.0, 0.2046 1.8504 0.0, 0.2282 1.9074 0.0, 0.4258 2.7427 0.0, 0.7596 2.6696 0.0, 1.0819 2.5561 0.0, 1.3878 2.4037 0.0, 1.6727 2.215 0.0, 1.9322 1.9926 0.0, 2.1624 1.7401 0.0, 2.3599 1.4612 0.0, 2.5215 1.1601 0.0, 2.645 0.8414 0.0, -0.2561 2.7638 0.0, -0.5752 2.7142 0.0, -1.2372 2.4846 0.0, -0.9225 2.6178 0.0, -0.5938 2.7113 0.0, -2.4453 1.3131 0.0, -2.2654 1.6037 0.0, -2.0512 1.8699 0.0, -2.5882 1.0027 0.0, -1.8058 2.1078 0.0, -1.5331 2.3137 0.0, -1.5331 -2.3137 0.0, -1.8058 -2.1078 0.0, -0.5752 -1.2089 0.0, -2.0512 -1.8699 0.0, -2.2654 -1.6037 0.0, -2.4453 -1.3131 0.0, -2.4933 -1.2089 0.0, -2.5882 -1.0027 0.0, -0.5752 -2.4902 0.0, -0.5752 -2.7142 0.0, -0.5938 -2.7113 0.0, -0.9225 -2.6178 0.0, -1.2241 -2.4902 0.0, -1.2372 -2.4846 0.0, -0.2386 -2.7643 0.0, -0.2561 -2.7638 0.0, 0.0855 -2.7743 0.0, 0.1599 -2.7674 0.0, 1.0819 -2.5561 0.0, 0.7596 -2.6696 0.0, 0.5728 -2.7105 0.0, 0.4258 -2.7427 0.0, 2.3599 -1.4612 0.0, 2.1624 -1.7401 0.0, 1.9322 -1.9926 0.0, 1.6727 -2.215 0.0, 1.3878 -2.4037 0.0, 1.2142 -2.4902 0.0, 2.645 -0.8414 0.0, 2.5215 -1.1601 0.0, 2.4953 -1.2089 0.0, -0.1726 -0.1575 0.0, -0.2158 -0.1575 0.0, -0.2386 -0.1191 0.0, 0.159 -0.203 0.0, 0.1467 -0.1575 0.0, 0.1599 -0.1191 0.0, 0.0939 -0.1575 0.0, 0.1191 -0.2497 0.0, -0.1765 -0.1645 0.0, 0.1129 -0.2018 0.0, 0.1147 -0.2884 0.0, 0.1041 -0.3178 0.0, 0.0854 -0.3456 0.0, 0.0591 -0.3693 0.0, 0.0286 -0.3854 0.0, -0.014 -0.3958 0.0, -0.0436 -0.3975 0.0, -0.0862 -0.3936 0.0, -0.12 -0.3829 0.0, -0.1978 -0.2585 0.0, -0.1667 -0.3482 0.0, -0.1937 -0.2951 0.0, -0.1831 -0.324 0.0, -0.1474 -0.3665 0.0, -0.192 -0.2063 0.0, 0.1623 -0.2501 0.0, 0.1599 -0.2153 0.0, 0.0907 -0.4065 0.0, 0.1238 -0.3723 0.0, -0.2386 -0.2889 0.0, -0.236 -0.3143 0.0, -0.2228 -0.3527 0.0, -0.2021 -0.3848 0.0, -0.0468 -0.4504 0.0, 0.0091 -0.4447 0.0, 0.0538 -0.4296 0.0, 0.1455 -0.3355 0.0, 0.1586 -0.2923 0.0, 0.1599 -0.2775 0.0, -0.1708 -0.4142 0.0, -0.1332 -0.435 0.0, -0.0915 -0.4467 0.0, -0.193 -0.6328 0.0, -0.233 -0.1994 0.0, -0.2386 -0.2392 0.0, -0.2408 -0.255 0.0, -0.241 -0.2658 0.0, -0.193 0.1306 0.0, -0.2362 0.1306 0.0, -0.2362 -0.0807 0.0, 0.1575 -0.0807 0.0, 0.1575 0.121 0.0, 0.1143 0.121 0.0, -0.0586 -0.0278 0.0, -0.193 -0.0278 0.0, -0.0586 0.1114 0.0, -0.0154 0.1114 0.0, -0.0154 -0.0278 0.0, 0.1143 -0.0278 0.0, -0.232 0.3632 0.0, -2.4447 -1.3128 2.3622, -2.4533 -1.2982 2.3622, -2.5584 -1.0763 2.3622, -2.3289 -1.51 2.3622, -2.2632 -1.6021 2.3622, -2.1864 -1.7099 2.3622, -2.0502 -1.869 2.3622, -2.0267 -1.8964 2.3622, -1.8511 -2.0681 2.3622, -1.6611 -2.2236 2.3622, -1.8046 -2.1062 2.3622, -1.2371 -2.4843 2.3622, -1.2436 -2.4814 2.3622, -1.4581 -2.3618 2.3622, -1.5317 -2.3117 2.3622, -1.0195 -2.5816 2.3622, -0.7873 -2.6616 2.3622, -0.9216 -2.6153 2.3622, -0.0614 -2.7749 2.3622, -0.256 -2.762 2.3622, -0.3064 -2.7586 2.3622, -0.549 -2.7208 2.3622, -0.5934 -2.7097 2.3622, 0.6688 -2.6938 2.3622, 0.4281 -2.7424 2.3622, 0.4257 -2.7426 2.3622, 0.1841 -2.7695 2.3622, 0.0854 -2.7717 2.3622, 0.9043 -2.6241 2.3622, 0.7588 -2.6672 2.3622, 1.3522 -2.4239 2.3622, 1.1327 -2.534 2.3622, 1.0812 -2.5543 2.3622, 1.5611 -2.2949 2.3622, 1.387 -2.4024 2.3622, 1.7578 -2.148 2.3622, 1.6711 -2.2128 2.3622, 2.1605 -1.7386 2.3622, 2.1086 -1.8049 2.3622, 1.9408 -1.9842 2.3622, 1.9318 -1.9923 2.3622, 2.2598 -1.6115 2.3622, 2.3581 -1.46 2.3622, 2.3934 -1.4055 2.3622, 2.5083 -1.1885 2.3622, 2.5204 -1.1596 2.3622, 2.6035 -0.9621 2.3622, 2.6424 -0.8406 2.3622, 2.6783 -0.7283 2.3622, 2.7275 -0.5098 2.3622, 2.7322 -0.4887 2.3622, 2.7647 -0.2453 2.3622, 2.768 -0.1708 2.3622, 2.7756 0.0 2.3622, 2.768 0.1708 2.3622, 2.7647 0.2453 2.3622, 2.7322 0.4887 2.3622, 2.6035 0.9621 2.3622, 2.6424 0.8406 2.3622, 2.6783 0.7283 2.3622, 2.7275 0.5098 2.3622, 2.3581 1.46 2.3622, 2.3934 1.4055 2.3622, 2.5083 1.1885 2.3622, 2.5204 1.1596 2.3622, 2.2598 1.6115 2.3622, 2.1605 1.7386 2.3622, 2.1086 1.8049 2.3622, 1.9408 1.9842 2.3622, 1.7578 2.148 2.3622, 1.9318 1.9923 2.3622, 1.5611 2.2949 2.3622, 1.6711 2.2128 2.3622, 1.0812 2.5543 2.3622, 1.1327 2.534 2.3622, 1.3522 2.4239 2.3622, 1.387 2.4024 2.3622, 0.9043 2.6241 2.3622, 0.7588 2.6672 2.3622, -0.3064 2.7586 2.3622, -0.256 2.762 2.3622, -0.0614 2.7749 2.3622, 0.0854 2.7717 2.3622, 0.1841 2.7695 2.3622, 0.4257 2.7426 2.3622, 0.4281 2.7424 2.3622, 0.6688 2.6938 2.3622, -0.7873 2.6616 2.3622, -0.5934 2.7097 2.3622, -0.549 2.7208 2.3622, -1.0195 2.5816 2.3622, -0.9216 2.6153 2.3622, -1.5317 2.3117 2.3622, -1.4581 2.3618 2.3622, -1.2436 2.4814 2.3622, -1.2371 2.4843 2.3622, -1.6611 2.2236 2.3622, -1.8046 2.1062 2.3622, -1.8511 2.0681 2.3622, -2.0267 1.8964 2.3622, -2.1864 1.7099 2.3622, -2.0502 1.869 2.3622, -2.3289 1.51 2.3622, -2.2632 1.6021 2.3622, -2.5859 1.0018 2.3622, -2.5584 1.0763 2.3622, -2.4533 1.2982 2.3622, -2.4447 1.3128 2.3622, -2.6435 0.846 2.3622, -2.6896 0.6764 2.3622, -2.7079 0.6091 2.3622, -2.7512 0.3674 2.3622, -2.5859 -1.0018 2.3622, -2.6435 -0.846 2.3622, -2.6896 -0.6764 2.3622, -2.7079 -0.6091 2.3622, -2.7512 -0.3674 2.3622, -2.7535 -0.341 2.3622, -2.7729 -0.1228 2.3622, -2.7729 0.0 2.3622, -2.7729 0.1228 2.3622, -2.7535 0.341 2.3622, 2.5686 -0.2279 2.5591, 0.4331 0.0 2.5591, 0.4183 -0.1121 2.5591, 2.4189 -0.8939 2.5591, 2.4884 -0.6766 2.5591, 2.5385 -0.454 2.5591, 2.3304 -1.1042 2.5591, 0.3751 -0.2165 2.5591, 2.2237 -1.3058 2.5591, -0.7315 2.4728 2.5591, -0.9472 2.3985 2.5591, -0.1121 0.4183 2.5591, -1.1554 2.3054 2.5591, -0.2165 0.3751 2.5591, 2.3304 1.1042 2.5591, 2.2237 1.3058 2.5591, 0.3751 0.2165 2.5591, 2.0996 -1.4972 2.5591, 0.3062 -0.3062 2.5591, 1.959 -1.6769 2.5591, 0.171 -2.5731 2.5591, 0.3978 -2.5479 2.5591, -0.0 -0.4331 2.5591, 0.1121 -0.4183 2.5591, -1.3547 2.1943 2.5591, -1.5433 2.0659 2.5591, -0.3062 0.3062 2.5591, -1.7199 1.9215 2.5591, -1.8829 1.7619 2.5591, 1.8032 1.8435 2.5591, 0.3062 0.3062 2.5591, 1.959 1.6769 2.5591, 2.0996 1.4972 2.5591, 1.2563 -2.252 2.5591, 1.4504 -2.1322 2.5591, 0.2165 -0.3751 2.5591, 1.6332 -1.9957 2.5591, 1.8032 -1.8435 2.5591, -0.1121 -0.4183 2.5591, -0.2847 -2.563 2.5591, -0.057 -2.5781 2.5591, -0.9472 -2.3985 2.5591, -0.7315 -2.4728 2.5591, -0.5101 -2.5278 2.5591, -0.5101 2.5278 2.5591, 0.0 0.4331 2.5591, -0.2847 2.563 2.5591, 0.6214 2.5028 2.5591, 0.3978 2.5479 2.5591, 0.1121 0.4183 2.5591, 0.171 2.5731 2.5591, -0.057 2.5781 2.5591, 1.6332 1.9957 2.5591, 1.4504 2.1322 2.5591, 0.2165 0.3751 2.5591, 0.6214 -2.5028 2.5591, 0.8402 -2.438 2.5591, 1.0523 -2.3542 2.5591, 1.2563 2.252 2.5591, 1.0523 2.3542 2.5591, 0.8402 2.438 2.5591, 2.4189 0.8939 2.5591, 0.4183 0.1121 2.5591, 2.4884 0.6766 2.5591, 2.5787 -0.0 2.5591, 2.5686 0.2279 2.5591, 2.5385 0.454 2.5591, -1.1554 -2.3054 2.5591, -0.2165 -0.3751 2.5591, -1.3547 -2.1943 2.5591, -2.0313 -1.5886 2.5591, -1.8829 -1.7619 2.5591, -0.3062 -0.3062 2.5591, -1.7199 -1.9215 2.5591, -1.5433 -2.0659 2.5591, -2.1637 -1.4029 2.5591, -0.3751 -0.2165 2.5591, -2.2793 -1.2062 2.5591, -2.5762 0.1141 2.5591, -0.4331 0.0 2.5591, -2.5561 0.3413 2.5591, -0.4183 0.1121 2.5591, -2.5159 0.5659 2.5591, -2.0313 1.5886 2.5591, -2.1637 1.4029 2.5591, -0.3751 0.2165 2.5591, -2.5762 -0.1141 2.5591, -2.5561 -0.3413 2.5591, -0.4183 -0.1121 2.5591, -2.2793 1.2062 2.5591, -2.377 1.0 2.5591, -2.456 0.786 2.5591, -2.5159 -0.5659 2.5591, -2.456 -0.786 2.5591, -2.377 -1.0 2.5591, 0.4331 -0.0 1.7717, 0.4183 0.1121 1.7717, 0.3751 0.2165 1.7717, 0.3062 0.3062 1.7717, 0.2165 0.3751 1.7717, 0.1121 0.4183 1.7717, 0.0 0.4331 1.7717, -0.1121 0.4183 1.7717, -0.2165 0.3751 1.7717, -0.3062 0.3062 1.7717, -0.3751 0.2165 1.7717, -0.4183 0.1121 1.7717, -0.4331 0.0 1.7717, -0.4183 -0.1121 1.7717, -0.3751 -0.2165 1.7717, -0.3062 -0.3062 1.7717, -0.2165 -0.3751 1.7717, -0.1121 -0.4183 1.7717, -0.0 -0.4331 1.7717, 0.1121 -0.4183 1.7717, 0.2165 -0.3751 1.7717, 0.3062 -0.3062 1.7717, 0.3751 -0.2165 1.7717, 0.4183 -0.1121 1.7717, 0.4183 -0.1121 1.7717
            ]
        }
        coordIndex [
            0,1,2,-1,3,4,5,-1,6,7,8,-1,9,10,11,-1,11,10,12,-1,8,7,13,-1,12,10,14,-1,14,10,15,-1,14,15,16,-1,17,18,19,-1,19,18,20,-1,19,20,21,-1,22,23,24,-1,24,23,25,-1,24,25,26,-1,27,28,29,-1,26,30,24,-1,24,30,31,-1,24,31,32,-1,32,31,33,-1,32,33,34,-1,35,36,37,-1,37,36,38,-1,37,38,39,-1,39,38,40,-1,39,40,29,-1,29,40,41,-1,29,41,27,-1,28,42,29,-1,29,42,43,-1,29,43,44,-1,22,24,45,-1,45,24,21,-1,45,21,44,-1,46,47,48,-1,49,50,51,-1,18,52,20,-1,20,52,53,-1,20,53,51,-1,50,54,51,-1,51,54,55,-1,51,55,56,-1,57,58,32,-1,32,58,59,-1,32,59,24,-1,60,61,58,-1,58,61,62,-1,58,62,51,-1,51,62,63,-1,51,63,49,-1,64,65,58,-1,58,65,66,-1,58,66,60,-1,47,67,57,-1,57,67,68,-1,57,68,58,-1,58,68,69,-1,58,69,64,-1,70,71,72,-1,3,5,73,-1,74,1,75,-1,75,1,76,-1,75,76,77,-1,2,78,79,-1,79,78,80,-1,79,80,81,-1,74,82,1,-1,1,82,83,-1,1,83,2,-1,2,83,84,-1,2,84,78,-1,85,86,87,-1,87,86,88,-1,88,89,87,-1,87,89,90,-1,87,90,91,-1,91,92,93,-1,92,94,93,-1,93,94,95,-1,93,95,96,-1,96,95,97,-1,96,97,98,-1,98,97,99,-1,98,99,100,-1,100,99,101,-1,100,101,102,-1,102,101,103,-1,102,103,104,-1,104,103,105,-1,104,105,106,-1,106,105,107,-1,106,107,76,-1,76,107,108,-1,76,108,77,-1,109,110,111,-1,111,110,112,-1,111,113,109,-1,109,113,114,-1,109,114,115,-1,115,114,116,-1,115,116,117,-1,118,119,120,-1,120,119,121,-1,120,121,122,-1,118,123,119,-1,119,123,124,-1,119,124,125,-1,124,126,125,-1,125,126,127,-1,125,127,128,-1,128,127,129,-1,128,129,116,-1,116,129,130,-1,116,130,117,-1,131,132,133,-1,131,133,121,-1,121,133,134,-1,121,134,122,-1,135,136,131,-1,131,136,137,-1,131,137,132,-1,110,138,112,-1,112,138,139,-1,112,139,140,-1,141,142,143,-1,144,145,146,-1,146,145,147,-1,144,148,145,-1,145,148,149,-1,145,149,135,-1,135,149,150,-1,135,150,136,-1,140,139,151,-1,151,139,152,-1,151,152,141,-1,141,152,153,-1,141,153,142,-1,154,155,156,-1,157,158,159,-1,159,158,160,-1,159,160,154,-1,154,160,161,-1,154,161,155,-1,162,163,164,-1,164,163,165,-1,164,165,159,-1,159,165,166,-1,159,166,157,-1,167,168,169,-1,170,171,15,-1,15,171,172,-1,168,173,169,-1,169,173,174,-1,169,174,175,-1,176,177,164,-1,164,177,178,-1,164,178,162,-1,172,167,15,-1,15,167,169,-1,15,169,16,-1,16,169,13,-1,16,13,179,-1,179,13,7,-1,175,180,169,-1,169,180,181,-1,169,181,176,-1,176,181,182,-1,176,182,183,-1,183,184,176,-1,176,184,185,-1,176,185,177,-1,34,186,145,-1,187,188,189,-1,189,188,190,-1,189,190,191,-1,186,192,145,-1,145,192,193,-1,145,193,187,-1,35,37,191,-1,191,37,194,-1,191,194,189,-1,187,189,145,-1,145,189,195,-1,145,195,196,-1,196,197,145,-1,145,197,198,-1,145,198,199,-1,199,200,145,-1,145,200,201,-1,145,201,202,-1,143,147,141,-1,141,147,145,-1,141,145,203,-1,203,145,202,-1,44,21,29,-1,29,21,20,-1,29,20,204,-1,204,20,87,-1,204,87,205,-1,206,207,87,-1,87,207,208,-1,87,208,205,-1,209,210,87,-1,87,210,211,-1,91,93,87,-1,87,93,212,-1,87,212,209,-1,211,213,87,-1,87,213,214,-1,87,214,206,-1,215,216,217,-1,217,216,218,-1,217,218,219,-1,219,220,217,-1,217,220,221,-1,217,221,2,-1,2,221,222,-1,2,222,0,-1,223,224,225,-1,225,226,223,-1,223,226,227,-1,223,227,217,-1,217,227,228,-1,217,228,215,-1,176,229,230,-1,229,176,231,-1,231,176,164,-1,231,164,232,-1,233,234,159,-1,159,234,235,-1,159,235,164,-1,164,235,236,-1,164,236,232,-1,237,238,154,-1,154,238,239,-1,239,240,154,-1,154,240,241,-1,154,241,159,-1,159,241,242,-1,159,242,233,-1,125,243,119,-1,119,243,244,-1,119,244,154,-1,154,244,245,-1,154,245,237,-1,246,247,248,-1,249,250,251,-1,251,250,252,-1,253,254,255,-1,255,254,246,-1,255,246,252,-1,253,256,254,-1,254,256,257,-1,254,257,258,-1,258,259,254,-1,254,259,260,-1,254,260,261,-1,261,262,254,-1,254,262,263,-1,254,263,264,-1,265,266,267,-1,267,266,268,-1,264,269,254,-1,254,269,266,-1,254,266,270,-1,270,266,265,-1,131,271,272,-1,9,273,274,-1,275,276,8,-1,8,276,277,-1,8,277,278,-1,279,280,9,-1,9,280,281,-1,9,281,273,-1,274,282,9,-1,9,282,283,-1,9,283,284,-1,278,285,8,-1,8,285,286,-1,8,286,287,-1,287,279,8,-1,8,279,9,-1,8,9,6,-1,6,9,11,-1,6,11,288,-1,247,289,248,-1,248,289,290,-1,248,290,5,-1,5,290,291,-1,5,291,292,-1,292,275,5,-1,5,275,79,-1,5,79,73,-1,73,79,81,-1,271,131,284,-1,284,131,121,-1,284,121,9,-1,9,121,119,-1,9,119,10,-1,10,119,154,-1,10,154,15,-1,15,154,156,-1,15,156,170,-1,275,8,79,-1,79,8,13,-1,79,13,2,-1,2,13,169,-1,2,169,217,-1,217,169,176,-1,217,176,223,-1,223,176,230,-1,223,230,224,-1,47,57,48,-1,48,57,293,-1,48,293,294,-1,252,246,251,-1,251,246,248,-1,251,248,295,-1,295,296,251,-1,251,296,297,-1,251,297,57,-1,57,297,298,-1,57,298,293,-1,299,300,301,-1,301,300,293,-1,301,293,302,-1,302,293,298,-1,302,298,303,-1,303,298,304,-1,4,70,5,-1,5,70,72,-1,5,72,248,-1,248,72,48,-1,248,48,295,-1,295,48,294,-1,34,145,32,-1,32,145,135,-1,32,135,57,-1,57,135,131,-1,57,131,251,-1,251,131,272,-1,251,272,249,-1,71,85,72,-1,72,85,87,-1,72,87,48,-1,48,87,20,-1,48,20,46,-1,46,20,51,-1,46,51,305,-1,305,51,56,-1,220,306,307,-1,220,307,221,-1,221,307,308,-1,221,308,222,-1,306,220,309,-1,309,220,219,-1,309,219,310,-1,310,219,311,-1,311,219,218,-1,311,218,312,-1,312,218,313,-1,313,218,216,-1,313,216,314,-1,215,315,216,-1,216,315,316,-1,216,316,314,-1,317,318,215,-1,318,319,215,-1,215,319,320,-1,215,320,315,-1,226,321,227,-1,227,321,317,-1,227,317,228,-1,228,317,215,-1,225,322,226,-1,226,322,323,-1,226,323,321,-1,231,324,229,-1,229,324,325,-1,229,325,230,-1,230,325,326,-1,230,326,224,-1,224,326,327,-1,224,327,225,-1,225,327,328,-1,225,328,322,-1,234,329,235,-1,235,329,330,-1,235,330,236,-1,236,330,331,-1,236,331,232,-1,232,331,332,-1,232,332,231,-1,231,332,333,-1,231,333,324,-1,233,334,234,-1,234,334,335,-1,234,335,329,-1,241,336,242,-1,242,336,337,-1,242,337,233,-1,233,337,338,-1,233,338,334,-1,240,339,241,-1,241,339,340,-1,241,340,336,-1,239,341,240,-1,240,341,342,-1,240,342,339,-1,343,344,238,-1,238,344,345,-1,238,345,239,-1,239,345,346,-1,239,346,341,-1,343,238,347,-1,347,238,237,-1,347,237,348,-1,348,237,349,-1,349,237,245,-1,349,245,350,-1,350,245,351,-1,351,245,244,-1,351,244,352,-1,352,244,243,-1,352,243,353,-1,353,243,354,-1,354,243,125,-1,354,125,355,-1,355,125,128,-1,355,128,356,-1,356,128,116,-1,356,116,357,-1,357,116,114,-1,357,114,358,-1,358,114,113,-1,358,113,359,-1,113,111,359,-1,359,111,112,-1,359,112,360,-1,360,112,140,-1,360,140,361,-1,361,140,151,-1,361,151,362,-1,202,363,203,-1,203,363,364,-1,203,364,141,-1,141,364,365,-1,141,365,151,-1,151,365,366,-1,151,366,362,-1,367,368,201,-1,201,368,369,-1,201,369,202,-1,202,369,370,-1,202,370,363,-1,367,201,371,-1,371,201,200,-1,371,200,372,-1,372,200,373,-1,373,200,199,-1,373,199,374,-1,198,375,199,-1,199,375,376,-1,199,376,374,-1,197,377,198,-1,198,377,378,-1,198,378,375,-1,379,380,196,-1,196,380,381,-1,196,381,197,-1,197,381,382,-1,197,382,377,-1,379,196,383,-1,383,196,195,-1,383,195,384,-1,205,385,204,-1,204,385,386,-1,204,386,29,-1,29,386,387,-1,29,387,39,-1,39,387,388,-1,39,388,37,-1,37,388,389,-1,37,389,194,-1,194,389,390,-1,194,390,189,-1,189,390,391,-1,189,391,195,-1,195,391,392,-1,195,392,384,-1,207,393,208,-1,208,393,394,-1,208,394,205,-1,205,394,395,-1,205,395,385,-1,206,396,207,-1,207,396,397,-1,207,397,393,-1,398,399,214,-1,214,399,400,-1,214,400,206,-1,206,400,401,-1,206,401,396,-1,398,214,402,-1,402,214,213,-1,402,213,403,-1,403,213,404,-1,404,213,211,-1,404,211,405,-1,210,406,211,-1,211,406,407,-1,211,407,405,-1,209,408,210,-1,210,408,409,-1,210,409,406,-1,410,411,212,-1,212,411,412,-1,212,412,209,-1,209,412,413,-1,209,413,408,-1,410,212,414,-1,414,212,93,-1,414,93,415,-1,415,93,96,-1,415,96,416,-1,416,96,98,-1,416,98,417,-1,308,418,222,-1,222,418,419,-1,222,419,0,-1,0,419,420,-1,0,420,1,-1,1,420,421,-1,1,421,76,-1,76,421,422,-1,76,422,106,-1,106,422,423,-1,106,423,104,-1,104,423,424,-1,104,424,102,-1,102,424,425,-1,102,425,100,-1,100,425,426,-1,100,426,98,-1,98,426,427,-1,98,427,417,-1,428,429,430,-1,431,432,430,-1,430,432,433,-1,430,433,428,-1,431,430,434,-1,434,430,435,-1,434,435,436,-1,437,438,439,-1,439,438,440,-1,439,440,441,-1,442,443,444,-1,436,435,445,-1,445,435,446,-1,445,446,447,-1,448,449,450,-1,450,449,451,-1,440,452,441,-1,441,452,453,-1,441,453,454,-1,454,453,455,-1,454,455,456,-1,457,458,459,-1,459,458,444,-1,459,444,460,-1,460,444,443,-1,461,462,463,-1,463,462,464,-1,463,464,446,-1,446,464,465,-1,446,465,447,-1,466,467,450,-1,450,467,468,-1,450,468,448,-1,469,470,466,-1,466,470,471,-1,466,471,467,-1,437,439,472,-1,472,439,473,-1,472,473,474,-1,475,476,477,-1,477,476,478,-1,477,478,473,-1,473,478,479,-1,473,479,474,-1,457,480,458,-1,458,480,481,-1,458,481,482,-1,449,483,451,-1,451,483,484,-1,451,484,463,-1,463,484,485,-1,463,485,461,-1,481,486,482,-1,482,486,487,-1,482,487,477,-1,477,487,488,-1,477,488,475,-1,442,444,489,-1,489,444,490,-1,489,490,491,-1,428,492,429,-1,429,492,493,-1,429,493,490,-1,490,493,494,-1,490,494,491,-1,469,466,495,-1,495,466,496,-1,495,496,497,-1,498,499,500,-1,500,499,501,-1,500,501,496,-1,496,501,502,-1,496,502,497,-1,498,500,503,-1,503,500,504,-1,503,504,505,-1,506,507,508,-1,508,507,509,-1,508,509,510,-1,456,511,454,-1,454,511,512,-1,454,512,513,-1,506,514,507,-1,507,514,515,-1,507,515,516,-1,512,517,513,-1,513,517,518,-1,513,518,509,-1,509,518,519,-1,509,519,510,-1,515,520,516,-1,516,520,521,-1,516,521,504,-1,504,521,522,-1,504,522,505,-1,523,429,524,-1,524,429,490,-1,524,490,525,-1,525,490,444,-1,525,444,526,-1,526,444,458,-1,526,458,527,-1,527,458,482,-1,527,482,528,-1,528,482,477,-1,528,477,529,-1,529,477,473,-1,529,473,530,-1,530,473,439,-1,530,439,531,-1,531,439,441,-1,531,441,532,-1,532,441,454,-1,532,454,533,-1,533,454,513,-1,533,513,534,-1,534,513,509,-1,534,509,535,-1,535,509,507,-1,535,507,536,-1,536,507,516,-1,536,516,537,-1,537,516,504,-1,537,504,538,-1,538,504,500,-1,538,500,539,-1,539,500,496,-1,539,496,540,-1,540,496,466,-1,540,466,541,-1,541,466,450,-1,541,450,542,-1,542,450,451,-1,542,451,543,-1,543,451,463,-1,543,463,544,-1,544,463,446,-1,544,446,545,-1,545,446,435,-1,545,435,546,-1,546,435,430,-1,546,430,523,-1,523,430,429,-1,
        ]
    }
}
Shape{
    appearance Appearance {
        material  Material 	{
            diffuseColor 0.8509803921568627 0.8509803921568627 0.8509803921568627
            specularColor 0.4235294117647059 0.4235294117647059 0.4235294117647059
            ambientIntensity 0.2
            transparency 0
            shininess 0.5
        }
    }
    geometry IndexedFaceSet {
        ccw TRUE
        solid FALSE
        coord DEF co Coordinate {
            point [
                2.3766 0.1591 1.7717, 0.4331 -0.0 1.7717, 0.4183 0.1121 1.7717, 0.3751 0.2165 1.7717, 2.2501 0.7813 1.7717, 2.3342 0.4744 1.7717, 0.3062 0.3062 1.7717, 1.9637 1.348 1.7717, 2.1259 1.0743 1.7717, 0.2165 0.3751 1.7717, 1.5378 1.8189 1.7717, 1.7665 1.5977 1.7717, 0.1121 0.4183 1.7717, 1.0026 2.1606 1.7717, 1.2817 2.0077 1.7717, 0.0 0.4331 1.7717, 0.3962 2.3487 1.7717, 0.7057 2.2749 1.7717, -0.1121 0.4183 1.7717, -0.2384 2.3699 1.7717, 0.0796 2.3806 1.7717, -0.2165 0.3751 1.7717, -0.8561 2.2227 1.7717, -0.5522 2.317 1.7717, -0.3062 0.3062 1.7717, -1.4129 1.9176 1.7717, -1.1447 2.0888 1.7717, -2.3606 0.3175 1.7717, -0.4183 0.1121 1.7717, -0.4331 0.0 1.7717, -0.4183 -0.1121 1.7717, -2.3606 -0.3175 1.7717, -2.3819 0.0 1.7717, -0.3751 -0.2165 1.7717, -2.1929 -0.9299 1.7717, -2.2973 -0.6293 1.7717, -0.3062 -0.3062 1.7717, -1.8693 -1.4762 1.7717, -2.0494 -1.2139 1.7717, -0.3751 0.2165 1.7717, -1.8693 1.4762 1.7717, -1.6559 1.7122 1.7717, -2.2973 0.6293 1.7717, -2.1929 0.9299 1.7717, -2.0494 1.2139 1.7717, -0.2165 -0.3751 1.7717, -1.4129 -1.9176 1.7717, -1.6559 -1.7122 1.7717, -0.1121 -0.4183 1.7717, -0.8561 -2.2227 1.7717, -1.1447 -2.0888 1.7717, -0.0 -0.4331 1.7717, -0.2384 -2.3699 1.7717, -0.5522 -2.317 1.7717, 0.1121 -0.4183 1.7717, 0.3962 -2.3487 1.7717, 0.0796 -2.3806 1.7717, 0.3062 -0.3062 1.7717, 0.3751 -0.2165 1.7717, 1.9637 -1.348 1.7717, 0.4183 -0.1121 1.7717, 2.2501 -0.7813 1.7717, 2.1259 -1.0743 1.7717, 2.3819 0.0 1.7717, 2.3766 -0.1591 1.7717, 2.3342 -0.4744 1.7717, 0.2165 -0.3751 1.7717, 1.0026 -2.1606 1.7717, 0.7057 -2.2749 1.7717, 1.7665 -1.5977 1.7717, 1.5378 -1.8189 1.7717, 1.2817 -2.0077 1.7717, -2.3819 -0.0 1.378, -2.3606 0.3175 1.378, -2.2973 0.6293 1.378, -2.1929 0.9299 1.378, -2.0494 1.2139 1.378, -1.8693 1.4762 1.378, -1.6559 1.7122 1.378, -1.4129 1.9176 1.378, -1.1447 2.0888 1.378, -0.8561 2.2227 1.378, -0.5522 2.317 1.378, -0.2384 2.3699 1.378, 0.0796 2.3806 1.378, 0.3962 2.3487 1.378, 0.7057 2.2749 1.378, 1.0026 2.1606 1.378, 1.2817 2.0077 1.378, 1.5378 1.8189 1.378, 1.7665 1.5977 1.378, 1.9637 1.348 1.378, 2.1259 1.0743 1.378, 2.2501 0.7813 1.378, 2.3342 0.4744 1.378, 2.3766 0.1591 1.378, 2.3819 0.0 1.378, 2.3766 -0.1591 1.378, 2.3342 -0.4744 1.378, 2.2501 -0.7813 1.378, 2.1259 -1.0743 1.378, 1.9637 -1.348 1.378, 1.7665 -1.5977 1.378, 1.5378 -1.8189 1.378, 1.2817 -2.0077 1.378, 1.0026 -2.1606 1.378, 0.7057 -2.2749 1.378, 0.3962 -2.3487 1.378, 0.0796 -2.3806 1.378, -0.2384 -2.3699 1.378, -0.5522 -2.317 1.378, -0.8561 -2.2227 1.378, -1.1447 -2.0888 1.378, -1.4129 -1.9176 1.378, -1.6559 -1.7122 1.378, -1.8693 -1.4762 1.378, -2.0494 -1.2139 1.378, -2.1929 -0.9299 1.378, -2.2973 -0.6293 1.378, -2.3606 -0.3175 1.378, -2.3606 -0.3175 1.378
            ]
        }
        coordIndex [
            0,1,2,-1,3,4,2,-1,2,4,5,-1,2,5,0,-1,6,7,3,-1,3,7,8,-1,3,8,4,-1,9,10,6,-1,6,10,11,-1,6,11,7,-1,12,13,9,-1,9,13,14,-1,9,14,10,-1,15,16,12,-1,12,16,17,-1,12,17,13,-1,18,19,15,-1,15,19,20,-1,15,20,16,-1,21,22,18,-1,18,22,23,-1,18,23,19,-1,24,25,21,-1,21,25,26,-1,21,26,22,-1,27,28,29,-1,30,31,29,-1,29,31,32,-1,29,32,27,-1,33,34,30,-1,30,34,35,-1,30,35,31,-1,36,37,33,-1,33,37,38,-1,33,38,34,-1,39,40,24,-1,24,40,41,-1,24,41,25,-1,27,42,28,-1,28,42,43,-1,28,43,39,-1,39,43,44,-1,39,44,40,-1,45,46,36,-1,36,46,47,-1,36,47,37,-1,48,49,45,-1,45,49,50,-1,45,50,46,-1,51,52,48,-1,48,52,53,-1,48,53,49,-1,54,55,51,-1,51,55,56,-1,51,56,52,-1,57,58,59,-1,60,61,58,-1,58,61,62,-1,58,62,59,-1,0,63,1,-1,1,63,64,-1,1,64,60,-1,60,64,65,-1,60,65,61,-1,66,67,54,-1,54,67,68,-1,54,68,55,-1,59,69,57,-1,57,69,70,-1,57,70,66,-1,66,70,71,-1,66,71,67,-1,32,72,27,-1,27,72,73,-1,27,73,42,-1,42,73,74,-1,42,74,43,-1,43,74,75,-1,43,75,44,-1,44,75,76,-1,44,76,40,-1,40,76,77,-1,40,77,41,-1,41,77,78,-1,41,78,25,-1,25,78,79,-1,25,79,26,-1,26,79,80,-1,26,80,22,-1,22,80,81,-1,22,81,23,-1,23,81,82,-1,23,82,19,-1,19,82,83,-1,19,83,20,-1,20,83,84,-1,20,84,16,-1,16,84,85,-1,16,85,17,-1,17,85,86,-1,17,86,13,-1,13,86,87,-1,13,87,14,-1,14,87,88,-1,14,88,10,-1,10,88,89,-1,10,89,11,-1,11,89,90,-1,11,90,7,-1,7,90,91,-1,7,91,8,-1,8,91,92,-1,8,92,4,-1,4,92,93,-1,4,93,5,-1,5,93,94,-1,5,94,0,-1,0,94,95,-1,0,95,63,-1,63,95,96,-1,63,96,64,-1,64,96,97,-1,64,97,65,-1,65,97,98,-1,65,98,61,-1,61,98,99,-1,61,99,62,-1,62,99,100,-1,62,100,59,-1,59,100,101,-1,59,101,69,-1,69,101,102,-1,69,102,70,-1,70,102,103,-1,70,103,71,-1,71,103,104,-1,71,104,67,-1,67,104,105,-1,67,105,68,-1,68,105,106,-1,68,106,55,-1,55,106,107,-1,55,107,56,-1,56,107,108,-1,56,108,52,-1,52,108,109,-1,52,109,53,-1,53,109,110,-1,53,110,49,-1,49,110,111,-1,49,111,50,-1,50,111,112,-1,50,112,46,-1,46,112,113,-1,46,113,47,-1,47,113,114,-1,47,114,37,-1,37,114,115,-1,37,115,38,-1,38,115,116,-1,38,116,34,-1,34,116,117,-1,34,117,35,-1,35,117,118,-1,35,118,31,-1,31,118,119,-1,31,119,32,-1,32,119,72,-1,
        ]
    }
}
Shape{
    appearance Appearance {
        material  Material 	{
            diffuseColor 0.0 0.0 0.0
            specularColor 0.0 0.0 0.0
            ambientIntensity 0.2
            transparency 0
            shininess 0.5
        }
    }
    geometry IndexedFaceSet {
        ccw TRUE
        solid FALSE
        coord DEF co Coordinate {
            point [
                2.3342 -0.4744 1.378, 2.3766 -0.1591 1.378, 0.0 0.0 1.378, 2.3819 0.0 1.378, 2.3766 0.1591 1.378, 1.9637 -1.348 1.378, 2.1259 -1.0743 1.378, 2.2501 -0.7813 1.378, 1.2817 -2.0077 1.378, 1.5378 -1.8189 1.378, 1.7665 -1.5977 1.378, 0.3962 -2.3487 1.378, 0.7057 -2.2749 1.378, 1.0026 -2.1606 1.378, -0.5522 -2.317 1.378, -0.2384 -2.3699 1.378, 0.0796 -2.3806 1.378, -1.4129 -1.9176 1.378, -1.1447 -2.0888 1.378, -0.8561 -2.2227 1.378, -2.0494 -1.2139 1.378, -1.8693 -1.4762 1.378, -1.6559 -1.7122 1.378, -2.3606 -0.3175 1.378, -2.2973 -0.6293 1.378, -2.1929 -0.9299 1.378, -2.2973 0.6293 1.378, -2.3606 0.3175 1.378, -2.3819 -0.0 1.378, -1.8693 1.4762 1.378, -2.0494 1.2139 1.378, -2.1929 0.9299 1.378, -1.1447 2.0888 1.378, -1.4129 1.9176 1.378, -1.6559 1.7122 1.378, -0.2384 2.3699 1.378, -0.5522 2.317 1.378, -0.8561 2.2227 1.378, 0.7057 2.2749 1.378, 0.3962 2.3487 1.378, 0.0796 2.3806 1.378, 1.5378 1.8189 1.378, 1.2817 2.0077 1.378, 1.0026 2.1606 1.378, 2.1259 1.0743 1.378, 1.9637 1.348 1.378, 1.7665 1.5977 1.378, 2.3342 0.4744 1.378, 2.2501 0.7813 1.378, 2.2501 0.7813 1.378
            ]
        }
        coordIndex [
            0,1,2,-1,2,1,3,-1,2,3,4,-1,5,6,2,-1,2,6,7,-1,2,7,0,-1,8,9,2,-1,2,9,10,-1,2,10,5,-1,11,12,2,-1,2,12,13,-1,2,13,8,-1,14,15,2,-1,2,15,16,-1,2,16,11,-1,17,18,2,-1,2,18,19,-1,2,19,14,-1,20,21,2,-1,2,21,22,-1,2,22,17,-1,23,24,2,-1,2,24,25,-1,2,25,20,-1,26,27,2,-1,2,27,28,-1,2,28,23,-1,29,30,2,-1,2,30,31,-1,2,31,26,-1,32,33,2,-1,2,33,34,-1,2,34,29,-1,35,36,2,-1,2,36,37,-1,2,37,32,-1,38,39,2,-1,2,39,40,-1,2,40,35,-1,41,42,2,-1,2,42,43,-1,2,43,38,-1,44,45,2,-1,2,45,46,-1,2,46,41,-1,4,47,2,-1,2,47,48,-1,2,48,44,-1,
        ]
    }
}
Shape{
    appearance Appearance {
        material  Material 	{
            diffuseColor 0.2235294117647059 0.2235294117647059 0.2235294117647059
            specularColor 0.11372549019607843 0.11372549019607843 0.11372549019607843
            ambientIntensity 0.2
            transparency 0
            shininess 0.5
        }
    }
    geometry IndexedFaceSet {
        ccw TRUE
        solid FALSE
        coord DEF co Coordinate {
            point [
                0.167 2.1355 -0.1969, 0.2046 2.0866 0.0, 0.2046 2.0866 -0.1969, 0.2282 2.0296 0.0, 0.2282 2.0296 -0.1969, 0.2362 1.9685 0.0, 0.2362 1.9685 -0.1969, 0.2282 1.9074 0.0, 0.2282 1.9074 -0.1969, 0.2046 1.8504 0.0, 0.2046 1.8504 -0.1969, 0.167 1.8015 0.0, 0.167 1.8015 -0.1969, 0.1599 1.796 0.0, 0.1181 1.7639 -0.1969, 0.1181 1.7639 0.0, 0.0611 1.7403 0.0, 0.0611 1.7403 -0.1969, 0.0 1.7323 0.0, 0.0 1.7323 -0.1969, -0.0611 1.7403 0.0, -0.0611 1.7403 -0.1969, -0.1181 1.7639 0.0, -0.1181 1.7639 -0.1969, -0.167 1.8015 0.0, -0.167 1.8015 -0.1969, -0.2046 1.8504 0.0, -0.2046 1.8504 -0.1969, -0.2282 1.9074 0.0, -0.2282 1.9074 -0.1969, -0.2362 1.9685 0.0, -0.2362 1.9685 -0.1969, -0.2282 2.0296 0.0, -0.2282 2.0296 -0.1969, -0.2046 2.0866 0.0, -0.2046 2.0866 -0.1969, -0.167 2.1355 0.0, -0.167 2.1355 -0.1969, -0.1181 2.1731 0.0, -0.1181 2.1731 -0.1969, -0.0611 2.1967 0.0, -0.0611 2.1967 -0.1969, 0.0 2.2047 0.0, 0.0 2.2047 -0.1969, 0.0611 2.1967 0.0, 0.0611 2.1967 -0.1969, 0.1181 2.1731 0.0, 0.1181 2.1731 -0.1969, 0.1599 2.141 0.0, 0.167 2.1355 0.0, 0.0 1.9685 -0.1969, 0.167 -1.8015 -0.1969, 0.2046 -1.8504 0.0, 0.2046 -1.8504 -0.1969, 0.2282 -1.9074 0.0, 0.2282 -1.9074 -0.1969, 0.2362 -1.9685 0.0, 0.2362 -1.9685 -0.1969, 0.2282 -2.0296 0.0, 0.2282 -2.0296 -0.1969, 0.2046 -2.0866 0.0, 0.2046 -2.0866 -0.1969, 0.167 -2.1355 0.0, 0.167 -2.1355 -0.1969, 0.1599 -2.141 0.0, 0.1181 -2.1731 -0.1969, 0.1181 -2.1731 0.0, 0.0611 -2.1967 0.0, 0.0611 -2.1967 -0.1969, -0.0 -2.2047 0.0, -0.0 -2.2047 -0.1969, -0.0611 -2.1967 0.0, -0.0611 -2.1967 -0.1969, -0.1181 -2.1731 0.0, -0.1181 -2.1731 -0.1969, -0.167 -2.1355 0.0, -0.167 -2.1355 -0.1969, -0.2046 -2.0866 0.0, -0.2046 -2.0866 -0.1969, -0.2282 -2.0296 0.0, -0.2282 -2.0296 -0.1969, -0.2362 -1.9685 0.0, -0.2362 -1.9685 -0.1969, -0.2282 -1.9074 0.0, -0.2282 -1.9074 -0.1969, -0.2046 -1.8504 0.0, -0.2046 -1.8504 -0.1969, -0.167 -1.8015 0.0, -0.167 -1.8015 -0.1969, -0.1181 -1.7639 0.0, -0.1181 -1.7639 -0.1969, -0.0611 -1.7403 0.0, -0.0611 -1.7403 -0.1969, -0.0 -1.7323 0.0, -0.0 -1.7323 -0.1969, 0.0611 -1.7403 0.0, 0.0611 -1.7403 -0.1969, 0.1181 -1.7639 0.0, 0.1181 -1.7639 -0.1969, 0.1599 -1.796 0.0, 0.167 -1.8015 0.0, -0.0 -1.9685 -0.1969, 1.7953 -0.5114 -0.1969, 1.6528 -0.5704 0.0, 1.6528 -0.5704 -0.1969, 1.5 -0.5906 0.0, 1.5 -0.5906 -0.1969, 1.3472 -0.5704 0.0, 1.3472 -0.5704 -0.1969, 1.2047 -0.5114 0.0, 1.2047 -0.5114 -0.1969, 1.147 -0.4672 0.0, 1.0824 -0.4176 -0.1969, 2.0704 -0.1528 -0.1969, 2.0114 -0.2953 0.0, 2.0114 -0.2953 -0.1969, 1.9176 -0.4176 0.0, 1.9176 -0.4176 -0.1969, 1.853 -0.4672 0.0, 1.7953 -0.5114 0.0, 2.0704 0.1528 -0.1969, 2.0906 0.0 0.0, 2.0906 0.0 -0.1969, 2.0749 -0.1191 0.0, 2.0704 -0.1528 0.0, 0.9886 0.2953 -0.1969, 1.0824 0.4176 0.0, 1.0824 0.4176 -0.1969, 1.2047 0.5114 0.0, 1.2047 0.5114 -0.1969, 1.3472 0.5704 0.0, 1.3472 0.5704 -0.1969, 1.5 0.5906 0.0, 1.5 0.5906 -0.1969, 1.6528 0.5704 0.0, 1.6528 0.5704 -0.1969, 1.7953 0.5114 0.0, 1.7953 0.5114 -0.1969, 1.9176 0.4176 0.0, 1.9176 0.4176 -0.1969, 2.0114 0.2953 0.0, 2.0114 0.2953 -0.1969, 2.0637 0.169 0.0, 2.0704 0.1528 0.0, 0.9094 0.0 -0.1969, 0.9296 0.1528 0.0, 0.9296 0.1528 -0.1969, 0.9363 0.169 0.0, 0.9886 0.2953 0.0, 1.0824 -0.4176 0.0, 0.9886 -0.2953 0.0, 0.9886 -0.2953 -0.1969, 0.9296 -0.1528 0.0, 0.9296 -0.1528 -0.1969, 0.9251 -0.1191 0.0, 0.9094 0.0 0.0, 1.4213 0.1364 -0.1969, 1.4592 0.1521 -0.1969, 1.5 0.1575 -0.1969, 1.5408 0.1521 -0.1969, 1.5787 0.1364 -0.1969, 1.6114 0.1114 -0.1969, 1.6364 0.0787 -0.1969, 1.6521 0.0408 -0.1969, 1.6575 0.0 -0.1969, 1.6521 -0.0408 -0.1969, 1.6364 -0.0787 -0.1969, 1.6114 -0.1114 -0.1969, 1.5787 -0.1364 -0.1969, 1.5408 -0.1521 -0.1969, 1.5 -0.1575 -0.1969, 1.4592 -0.1521 -0.1969, 1.4213 -0.1364 -0.1969, 1.3886 -0.1114 -0.1969, 1.3636 -0.0787 -0.1969, 1.3479 -0.0408 -0.1969, 1.3425 0.0 -0.1969, 1.3479 0.0408 -0.1969, 1.3636 0.0787 -0.1969, 1.3886 0.1114 -0.1969, -1.2047 -0.5114 -0.1969, -1.3472 -0.5704 0.0, -1.3472 -0.5704 -0.1969, -1.5 -0.5906 0.0, -1.5 -0.5906 -0.1969, -1.6528 -0.5704 0.0, -1.6528 -0.5704 -0.1969, -1.7953 -0.5114 0.0, -1.7953 -0.5114 -0.1969, -1.853 -0.4672 0.0, -1.9176 -0.4176 -0.1969, -0.9296 -0.1528 -0.1969, -0.9886 -0.2953 0.0, -0.9886 -0.2953 -0.1969, -1.0824 -0.4176 0.0, -1.0824 -0.4176 -0.1969, -1.147 -0.4672 0.0, -1.2047 -0.5114 0.0, -0.9296 0.1528 -0.1969, -0.9094 0.0 0.0, -0.9094 0.0 -0.1969, -0.9251 -0.1191 0.0, -0.9296 -0.1528 0.0, -2.0114 0.2953 -0.1969, -1.9176 0.4176 0.0, -1.9176 0.4176 -0.1969, -1.7953 0.5114 0.0, -1.7953 0.5114 -0.1969, -1.6528 0.5704 0.0, -1.6528 0.5704 -0.1969, -1.5 0.5906 0.0, -1.5 0.5906 -0.1969, -1.3472 0.5704 0.0, -1.3472 0.5704 -0.1969, -1.2047 0.5114 0.0, -1.2047 0.5114 -0.1969, -1.0824 0.4176 0.0, -1.0824 0.4176 -0.1969, -0.9886 0.2953 0.0, -0.9886 0.2953 -0.1969, -0.9363 0.169 0.0, -0.9296 0.1528 0.0, -2.0906 0.0 -0.1969, -2.0704 0.1528 0.0, -2.0704 0.1528 -0.1969, -2.0637 0.169 0.0, -2.0114 0.2953 0.0, -1.9176 -0.4176 0.0, -2.0114 -0.2953 0.0, -2.0114 -0.2953 -0.1969, -2.0704 -0.1528 0.0, -2.0704 -0.1528 -0.1969, -2.0749 -0.1191 0.0, -2.0906 0.0 0.0, -1.4592 0.1521 -0.1969, -1.4213 0.1364 -0.1969, -1.3886 0.1114 -0.1969, -1.3636 0.0787 -0.1969, -1.3479 0.0408 -0.1969, -1.3425 0.0 -0.1969, -1.3479 -0.0408 -0.1969, -1.3636 -0.0787 -0.1969, -1.3886 -0.1114 -0.1969, -1.4213 -0.1364 -0.1969, -1.4592 -0.1521 -0.1969, -1.5 -0.1575 -0.1969, -1.5408 -0.1521 -0.1969, -1.5787 -0.1364 -0.1969, -1.6114 -0.1114 -0.1969, -1.6364 -0.0787 -0.1969, -1.6521 -0.0408 -0.1969, -1.6575 0.0 -0.1969, -1.6521 0.0408 -0.1969, -1.6364 0.0787 -0.1969, -1.6114 0.1114 -0.1969, -1.5787 0.1364 -0.1969, -1.5408 0.1521 -0.1969, -1.5 0.1575 -0.1969, -1.5 0.1575 -0.1969
            ]
        }
        coordIndex [
            0,1,2,-1,2,1,3,-1,2,3,4,-1,4,3,5,-1,4,5,6,-1,6,5,7,-1,6,7,8,-1,8,7,9,-1,8,9,10,-1,10,9,11,-1,10,11,12,-1,12,11,13,-1,12,13,14,-1,13,15,14,-1,14,15,16,-1,14,16,17,-1,17,16,18,-1,17,18,19,-1,19,18,20,-1,19,20,21,-1,21,20,22,-1,21,22,23,-1,23,22,24,-1,23,24,25,-1,25,24,26,-1,25,26,27,-1,27,26,28,-1,27,28,29,-1,29,28,30,-1,29,30,31,-1,31,30,32,-1,31,32,33,-1,33,32,34,-1,33,34,35,-1,35,34,36,-1,35,36,37,-1,37,36,38,-1,37,38,39,-1,39,38,40,-1,39,40,41,-1,41,40,42,-1,41,42,43,-1,43,42,44,-1,43,44,45,-1,45,44,46,-1,45,46,47,-1,47,46,48,-1,47,48,0,-1,0,48,49,-1,0,49,1,-1,27,29,50,-1,50,29,31,-1,50,31,33,-1,21,23,50,-1,50,23,25,-1,50,25,27,-1,14,17,50,-1,50,17,19,-1,50,19,21,-1,8,10,50,-1,50,10,12,-1,50,12,14,-1,2,4,50,-1,50,4,6,-1,50,6,8,-1,45,47,50,-1,50,47,0,-1,50,0,2,-1,39,41,50,-1,50,41,43,-1,50,43,45,-1,33,35,50,-1,50,35,37,-1,50,37,39,-1,51,52,53,-1,53,52,54,-1,53,54,55,-1,55,54,56,-1,55,56,57,-1,57,56,58,-1,57,58,59,-1,59,58,60,-1,59,60,61,-1,61,60,62,-1,61,62,63,-1,63,62,64,-1,63,64,65,-1,64,66,65,-1,65,66,67,-1,65,67,68,-1,68,67,69,-1,68,69,70,-1,70,69,71,-1,70,71,72,-1,72,71,73,-1,72,73,74,-1,74,73,75,-1,74,75,76,-1,76,75,77,-1,76,77,78,-1,78,77,79,-1,78,79,80,-1,80,79,81,-1,80,81,82,-1,82,81,83,-1,82,83,84,-1,84,83,85,-1,84,85,86,-1,86,85,87,-1,86,87,88,-1,88,87,89,-1,88,89,90,-1,90,89,91,-1,90,91,92,-1,92,91,93,-1,92,93,94,-1,94,93,95,-1,94,95,96,-1,96,95,97,-1,96,97,98,-1,98,97,99,-1,98,99,51,-1,51,99,100,-1,51,100,52,-1,78,80,101,-1,101,80,82,-1,101,82,84,-1,72,74,101,-1,101,74,76,-1,101,76,78,-1,65,68,101,-1,101,68,70,-1,101,70,72,-1,59,61,101,-1,101,61,63,-1,101,63,65,-1,53,55,101,-1,101,55,57,-1,101,57,59,-1,96,98,101,-1,101,98,51,-1,101,51,53,-1,90,92,101,-1,101,92,94,-1,101,94,96,-1,84,86,101,-1,101,86,88,-1,101,88,90,-1,102,103,104,-1,104,103,105,-1,104,105,106,-1,106,105,107,-1,106,107,108,-1,108,107,109,-1,108,109,110,-1,110,109,111,-1,110,111,112,-1,113,114,115,-1,115,114,116,-1,115,116,117,-1,117,116,118,-1,117,118,102,-1,102,118,119,-1,102,119,103,-1,120,121,122,-1,122,121,123,-1,122,123,113,-1,113,123,124,-1,113,124,114,-1,125,126,127,-1,127,126,128,-1,127,128,129,-1,129,128,130,-1,129,130,131,-1,131,130,132,-1,131,132,133,-1,133,132,134,-1,133,134,135,-1,135,134,136,-1,135,136,137,-1,137,136,138,-1,137,138,139,-1,139,138,140,-1,139,140,141,-1,141,140,142,-1,141,142,120,-1,120,142,143,-1,120,143,121,-1,144,145,146,-1,146,145,147,-1,146,147,125,-1,125,147,148,-1,125,148,126,-1,111,149,112,-1,112,149,150,-1,112,150,151,-1,151,150,152,-1,151,152,153,-1,153,152,154,-1,153,154,144,-1,144,154,155,-1,144,155,145,-1,156,129,157,-1,157,129,131,-1,157,131,158,-1,158,131,133,-1,158,133,159,-1,159,133,135,-1,159,135,160,-1,160,135,137,-1,160,137,161,-1,161,137,139,-1,161,139,162,-1,162,139,141,-1,162,141,163,-1,163,141,120,-1,163,120,164,-1,164,120,122,-1,164,122,165,-1,165,122,113,-1,165,113,166,-1,166,113,115,-1,166,115,167,-1,167,115,117,-1,167,117,168,-1,168,117,102,-1,168,102,169,-1,169,102,104,-1,169,104,170,-1,170,104,106,-1,170,106,171,-1,171,106,108,-1,171,108,172,-1,172,108,110,-1,172,110,173,-1,173,110,112,-1,173,112,174,-1,174,112,151,-1,174,151,175,-1,175,151,153,-1,175,153,176,-1,176,153,144,-1,176,144,177,-1,177,144,146,-1,177,146,178,-1,178,146,125,-1,178,125,179,-1,179,125,127,-1,179,127,156,-1,156,127,129,-1,180,181,182,-1,182,181,183,-1,182,183,184,-1,184,183,185,-1,184,185,186,-1,186,185,187,-1,186,187,188,-1,188,187,189,-1,188,189,190,-1,191,192,193,-1,193,192,194,-1,193,194,195,-1,195,194,196,-1,195,196,180,-1,180,196,197,-1,180,197,181,-1,198,199,200,-1,200,199,201,-1,200,201,191,-1,191,201,202,-1,191,202,192,-1,203,204,205,-1,205,204,206,-1,205,206,207,-1,207,206,208,-1,207,208,209,-1,209,208,210,-1,209,210,211,-1,211,210,212,-1,211,212,213,-1,213,212,214,-1,213,214,215,-1,215,214,216,-1,215,216,217,-1,217,216,218,-1,217,218,219,-1,219,218,220,-1,219,220,198,-1,198,220,221,-1,198,221,199,-1,222,223,224,-1,224,223,225,-1,224,225,203,-1,203,225,226,-1,203,226,204,-1,189,227,190,-1,190,227,228,-1,190,228,229,-1,229,228,230,-1,229,230,231,-1,231,230,232,-1,231,232,222,-1,222,232,233,-1,222,233,223,-1,234,213,235,-1,235,213,215,-1,235,215,236,-1,236,215,217,-1,236,217,237,-1,237,217,219,-1,237,219,238,-1,238,219,198,-1,238,198,239,-1,239,198,200,-1,239,200,240,-1,240,200,191,-1,240,191,241,-1,241,191,193,-1,241,193,242,-1,242,193,195,-1,242,195,243,-1,243,195,180,-1,243,180,244,-1,244,180,182,-1,244,182,245,-1,245,182,184,-1,245,184,246,-1,246,184,186,-1,246,186,247,-1,247,186,188,-1,247,188,248,-1,248,188,190,-1,248,190,249,-1,249,190,229,-1,249,229,250,-1,250,229,231,-1,250,231,251,-1,251,231,222,-1,251,222,252,-1,252,222,224,-1,252,224,253,-1,253,224,203,-1,253,203,254,-1,254,203,205,-1,254,205,255,-1,255,205,207,-1,255,207,256,-1,256,207,209,-1,256,209,257,-1,257,209,211,-1,257,211,234,-1,234,211,213,-1,
        ]
    }
}
Shape{
    appearance Appearance {
        material  Material 	{
            diffuseColor 0.6470588235294118 0.6470588235294118 0.6470588235294118
            specularColor 0.3215686274509804 0.3215686274509804 0.3215686274509804
            ambientIntensity 0.2
            transparency 0
            shininess 0.5
        }
    }
    geometry IndexedFaceSet {
        ccw TRUE
        solid FALSE
        coord DEF co Coordinate {
            point [
                0.1575 0.7548 0.0039, -0.2362 0.9084 0.0039, 0.1575 0.7548 0.0, -0.2362 0.9084 0.0, -0.2362 0.8508 0.0039, -0.2362 0.8508 0.0, -0.1258 0.8109 0.0039, -0.1258 0.8109 0.0, -0.1258 0.7495 0.0, -0.1258 0.6483 0.0039, -0.1258 0.6483 0.0, -0.2362 0.6107 0.0039, -0.2362 0.6107 0.0, -0.2362 0.5531 0.0039, -0.2362 0.5531 0.0, 0.1575 0.7019 0.0039, 0.1575 0.7019 0.0, 0.1575 0.7495 0.0, -0.0826 0.6616 0.0039, 0.0819 0.7203 0.0039, 0.0955 0.7241 0.0039, 0.1095 0.7266 0.0039, 0.1095 0.7279 0.0039, 0.0956 0.7305 0.0039, -0.0826 0.7932 0.0039, 0.0819 0.734 0.0039, -0.0826 0.6616 0.0, -0.0826 0.7932 0.0, 0.0819 0.7203 0.0, 0.0955 0.7241 0.0, 0.1095 0.7266 0.0, 0.1095 0.7279 0.0, 0.0956 0.7305 0.0, 0.0819 0.734 0.0, -0.2362 0.3145 0.0039, -0.2362 0.2074 0.0039, -0.2362 0.3145 0.0, -0.2362 0.2074 0.0, 0.1575 0.2074 0.0039, 0.1575 0.2074 0.0, 0.1575 0.3185 0.0039, 0.1575 0.3185 0.0, -0.0344 0.5243 0.0039, -0.0344 0.5243 0.0, -0.0151 0.5236 0.0, -0.0151 0.5236 0.0039, 0.0259 0.5162 0.0, 0.0259 0.5162 0.0039, 0.0643 0.4997 0.0, 0.0643 0.4997 0.0039, 0.0956 0.4758 0.0, 0.0956 0.4758 0.0039, 0.1099 0.4605 0.0, 0.1099 0.4605 0.0039, 0.1352 0.4215 0.0, 0.1352 0.4215 0.0039, 0.1514 0.3754 0.0, 0.1514 0.3754 0.0039, -0.232 0.3632 0.0, -0.232 0.3632 0.0039, -0.2184 0.4085 0.0, -0.2184 0.4085 0.0039, -0.1946 0.4497 0.0, -0.1946 0.4497 0.0039, -0.1635 0.4821 0.0, -0.1635 0.4821 0.0039, -0.1283 0.5046 0.0, -0.1283 0.5046 0.0039, -0.0871 0.5188 0.0, -0.0871 0.5188 0.0039, -0.0355 0.4715 0.0039, 0.0036 0.4681 0.0039, 0.0347 0.459 0.0039, 0.0589 0.4454 0.0039, 0.0792 0.4263 0.0039, 0.0978 0.3976 0.0039, 0.1093 0.3651 0.0039, 0.1143 0.3183 0.0039, 0.1143 0.2602 0.0039, -0.193 0.2602 0.0039, -0.193 0.3161 0.0039, -0.1892 0.3576 0.0039, -0.1788 0.3908 0.0039, -0.1631 0.4173 0.0039, -0.1414 0.4393 0.0039, -0.1142 0.4562 0.0039, -0.0833 0.4665 0.0039, 0.1143 0.3183 0.0, 0.1143 0.2602 0.0, 0.1093 0.3651 0.0, 0.0978 0.3976 0.0, 0.0792 0.4263 0.0, 0.0589 0.4454 0.0, 0.0347 0.459 0.0, 0.0036 0.4681 0.0, -0.0355 0.4715 0.0, -0.0833 0.4665 0.0, -0.1142 0.4562 0.0, -0.1414 0.4393 0.0, -0.1631 0.4173 0.0, -0.1788 0.3908 0.0, -0.1892 0.3576 0.0, -0.193 0.3161 0.0, -0.193 0.2602 0.0, -0.193 0.1306 0.0039, -0.2362 0.1306 0.0039, -0.193 0.1306 0.0, -0.2362 0.1306 0.0, -0.2362 -0.0807 0.0039, -0.2362 -0.0807 0.0, 0.1575 -0.0807 0.0039, 0.1575 -0.0807 0.0, 0.1575 0.121 0.0039, 0.1575 0.121 0.0, 0.1143 0.121 0.0039, 0.1143 0.121 0.0, 0.1143 -0.0278 0.0039, 0.1143 -0.0278 0.0, -0.0154 -0.0278 0.0039, -0.0154 -0.0278 0.0, -0.0154 0.1114 0.0039, -0.0154 0.1114 0.0, -0.0586 0.1114 0.0039, -0.0586 0.1114 0.0, -0.0586 -0.0278 0.0039, -0.0586 -0.0278 0.0, -0.193 -0.0278 0.0039, -0.193 -0.0278 0.0, -0.1726 -0.1575 0.0039, -0.2158 -0.1575 0.0039, -0.1726 -0.1575 0.0, -0.2158 -0.1575 0.0, -0.233 -0.1994 0.0039, -0.241 -0.2658 0.0039, -0.241 -0.2658 0.0, -0.2408 -0.255 0.0, -0.2408 -0.255 0.0039, -0.2386 -0.2392 0.0, -0.233 -0.1994 0.0, -0.2386 -0.2889 0.0, -0.236 -0.3143 0.0039, -0.236 -0.3143 0.0, -0.2228 -0.3527 0.0039, -0.2228 -0.3527 0.0, -0.2021 -0.3848 0.0039, -0.2021 -0.3848 0.0, -0.1708 -0.4142 0.0039, -0.1708 -0.4142 0.0, -0.1332 -0.435 0.0039, -0.1332 -0.435 0.0, -0.0915 -0.4467 0.0039, -0.0915 -0.4467 0.0, -0.0468 -0.4504 0.0039, -0.0468 -0.4504 0.0, 0.1586 -0.2923 0.0039, 0.1623 -0.2501 0.0039, 0.1599 -0.2775 0.0, 0.1623 -0.2501 0.0, 0.1586 -0.2923 0.0, 0.1455 -0.3355 0.0, 0.1455 -0.3355 0.0039, 0.1238 -0.3723 0.0, 0.1238 -0.3723 0.0039, 0.0907 -0.4065 0.0, 0.0907 -0.4065 0.0039, 0.0538 -0.4296 0.0, 0.0538 -0.4296 0.0039, 0.0091 -0.4447 0.0, 0.0091 -0.4447 0.0039, 0.1599 -0.2153 0.0, 0.159 -0.203 0.0039, 0.159 -0.203 0.0, 0.1467 -0.1575 0.0039, 0.1467 -0.1575 0.0, 0.0939 -0.1575 0.0039, 0.0939 -0.1575 0.0, 0.1191 -0.2497 0.0039, 0.1191 -0.2497 0.0, 0.1129 -0.2018 0.0, 0.1129 -0.2018 0.0039, -0.0436 -0.3975 0.0039, -0.0436 -0.3975 0.0, -0.014 -0.3958 0.0, -0.014 -0.3958 0.0039, 0.0286 -0.3854 0.0, 0.0286 -0.3854 0.0039, 0.0591 -0.3693 0.0, 0.0591 -0.3693 0.0039, 0.0854 -0.3456 0.0, 0.0854 -0.3456 0.0039, 0.1041 -0.3178 0.0, 0.1041 -0.3178 0.0039, 0.1147 -0.2884 0.0, 0.1147 -0.2884 0.0039, -0.1978 -0.2585 0.0039, -0.1978 -0.2585 0.0, -0.1937 -0.2951 0.0, -0.1937 -0.2951 0.0039, -0.1831 -0.324 0.0, -0.1831 -0.324 0.0039, -0.1667 -0.3482 0.0, -0.1667 -0.3482 0.0039, -0.1474 -0.3665 0.0, -0.1474 -0.3665 0.0039, -0.12 -0.3829 0.0, -0.12 -0.3829 0.0039, -0.0862 -0.3936 0.0, -0.0862 -0.3936 0.0039, -0.1765 -0.1645 0.0, -0.1765 -0.1645 0.0039, -0.192 -0.2063 0.0, -0.192 -0.2063 0.0039, -0.193 -0.484 0.0039, -0.2362 -0.484 0.0039, -0.193 -0.484 0.0, -0.2362 -0.484 0.0, -0.2362 -0.6381 0.0, -0.2362 -0.6856 0.0039, -0.2362 -0.6856 0.0, 0.1575 -0.6856 0.0039, 0.1575 -0.6856 0.0, 0.1575 -0.6381 0.0, 0.1575 -0.6328 0.0039, 0.1575 -0.6328 0.0, -0.193 -0.6328 0.0039, -0.193 -0.6328 0.0, -0.193 -0.6328 0.0
            ]
        }
        coordIndex [
            0,1,2,-1,2,1,3,-1,1,4,3,-1,3,4,5,-1,4,6,5,-1,5,6,7,-1,7,6,8,-1,8,6,9,-1,8,9,10,-1,9,11,10,-1,10,11,12,-1,11,13,12,-1,12,13,14,-1,13,15,14,-1,14,15,16,-1,16,15,17,-1,17,15,0,-1,17,0,2,-1,18,19,15,-1,13,11,9,-1,19,20,15,-1,15,20,21,-1,15,21,0,-1,0,21,22,-1,0,22,23,-1,15,13,18,-1,18,13,9,-1,18,9,24,-1,24,9,6,-1,23,25,0,-1,0,25,24,-1,0,24,1,-1,1,24,6,-1,1,6,4,-1,18,24,26,-1,26,24,27,-1,19,18,28,-1,28,18,26,-1,19,28,29,-1,19,29,20,-1,20,29,30,-1,20,30,21,-1,22,21,31,-1,31,21,30,-1,22,31,32,-1,22,32,23,-1,23,32,33,-1,23,33,25,-1,24,25,27,-1,27,25,33,-1,34,35,36,-1,36,35,37,-1,35,38,37,-1,37,38,39,-1,38,40,39,-1,39,40,41,-1,42,43,44,-1,42,44,45,-1,45,44,46,-1,45,46,47,-1,47,46,48,-1,47,48,49,-1,49,48,50,-1,49,50,51,-1,51,50,52,-1,51,52,53,-1,53,52,54,-1,53,54,55,-1,55,54,56,-1,55,56,57,-1,57,56,41,-1,57,41,40,-1,34,36,58,-1,34,58,59,-1,59,58,60,-1,59,60,61,-1,61,60,62,-1,61,62,63,-1,63,62,64,-1,63,64,65,-1,65,64,66,-1,65,66,67,-1,67,66,68,-1,67,68,69,-1,69,68,43,-1,69,43,42,-1,69,42,70,-1,70,42,45,-1,70,45,71,-1,71,45,47,-1,71,47,72,-1,72,47,49,-1,72,49,73,-1,73,49,51,-1,73,51,74,-1,74,51,53,-1,74,53,75,-1,75,53,55,-1,75,55,76,-1,76,55,57,-1,76,57,77,-1,77,57,40,-1,77,40,78,-1,78,40,38,-1,78,38,79,-1,79,38,35,-1,79,35,80,-1,80,35,34,-1,80,34,81,-1,81,34,59,-1,81,59,82,-1,82,59,61,-1,82,61,83,-1,83,61,63,-1,83,63,84,-1,84,63,65,-1,84,65,85,-1,85,65,67,-1,85,67,86,-1,86,67,69,-1,86,69,70,-1,77,78,87,-1,87,78,88,-1,77,87,89,-1,77,89,76,-1,76,89,90,-1,76,90,75,-1,75,90,91,-1,75,91,74,-1,74,91,92,-1,74,92,73,-1,73,92,93,-1,73,93,72,-1,72,93,94,-1,72,94,71,-1,71,94,95,-1,71,95,70,-1,70,95,96,-1,70,96,86,-1,86,96,97,-1,86,97,85,-1,85,97,98,-1,85,98,84,-1,84,98,99,-1,84,99,83,-1,83,99,100,-1,83,100,82,-1,82,100,101,-1,82,101,81,-1,81,101,102,-1,81,102,80,-1,79,80,103,-1,103,80,102,-1,78,79,88,-1,88,79,103,-1,104,105,106,-1,106,105,107,-1,105,108,107,-1,107,108,109,-1,108,110,109,-1,109,110,111,-1,110,112,111,-1,111,112,113,-1,112,114,113,-1,113,114,115,-1,114,116,115,-1,115,116,117,-1,116,118,117,-1,117,118,119,-1,118,120,119,-1,119,120,121,-1,120,122,121,-1,121,122,123,-1,122,124,123,-1,123,124,125,-1,124,126,125,-1,125,126,127,-1,126,104,127,-1,127,104,106,-1,108,105,104,-1,104,126,108,-1,108,126,124,-1,108,124,110,-1,114,112,116,-1,116,112,110,-1,116,110,118,-1,118,110,124,-1,118,124,120,-1,120,124,122,-1,128,129,130,-1,130,129,131,-1,131,129,132,-1,133,134,135,-1,133,135,136,-1,136,135,137,-1,136,137,132,-1,132,137,138,-1,132,138,131,-1,134,133,139,-1,139,133,140,-1,139,140,141,-1,141,140,142,-1,141,142,143,-1,143,142,144,-1,143,144,145,-1,145,144,146,-1,145,146,147,-1,147,146,148,-1,147,148,149,-1,149,148,150,-1,149,150,151,-1,151,150,152,-1,151,152,153,-1,154,155,156,-1,156,155,157,-1,156,158,154,-1,154,158,159,-1,154,159,160,-1,160,159,161,-1,160,161,162,-1,162,161,163,-1,162,163,164,-1,164,163,165,-1,164,165,166,-1,166,165,167,-1,166,167,168,-1,168,167,153,-1,168,153,152,-1,157,155,169,-1,169,155,170,-1,169,170,171,-1,171,170,172,-1,171,172,173,-1,172,174,173,-1,173,174,175,-1,176,177,178,-1,176,178,179,-1,179,178,175,-1,179,175,174,-1,180,181,182,-1,180,182,183,-1,183,182,184,-1,183,184,185,-1,185,184,186,-1,185,186,187,-1,187,186,188,-1,187,188,189,-1,189,188,190,-1,189,190,191,-1,191,190,192,-1,191,192,193,-1,193,192,177,-1,193,177,176,-1,194,195,196,-1,194,196,197,-1,197,196,198,-1,197,198,199,-1,199,198,200,-1,199,200,201,-1,201,200,202,-1,201,202,203,-1,203,202,204,-1,203,204,205,-1,205,204,206,-1,205,206,207,-1,207,206,181,-1,207,181,180,-1,128,130,208,-1,128,208,209,-1,209,208,210,-1,209,210,211,-1,211,210,195,-1,211,195,194,-1,197,133,194,-1,194,133,136,-1,194,136,211,-1,211,136,132,-1,211,132,209,-1,209,132,129,-1,209,129,128,-1,174,172,179,-1,179,172,170,-1,179,170,176,-1,176,170,155,-1,176,155,193,-1,193,155,154,-1,193,154,191,-1,191,154,160,-1,191,160,189,-1,189,160,162,-1,189,162,187,-1,187,162,164,-1,187,164,185,-1,185,164,166,-1,185,166,183,-1,183,166,168,-1,183,168,180,-1,180,168,152,-1,180,152,207,-1,207,152,150,-1,207,150,205,-1,205,150,148,-1,205,148,203,-1,203,148,146,-1,203,146,201,-1,201,146,144,-1,201,144,199,-1,199,144,142,-1,199,142,197,-1,197,142,140,-1,197,140,133,-1,212,213,214,-1,214,213,215,-1,215,213,216,-1,216,213,217,-1,216,217,218,-1,217,219,218,-1,218,219,220,-1,220,219,221,-1,221,219,222,-1,221,222,223,-1,222,224,223,-1,223,224,225,-1,224,212,225,-1,225,212,214,-1,222,219,224,-1,224,219,217,-1,224,217,212,-1,212,217,213,-1,
        ]
    }
}
Shape{
    appearance Appearance {
        material  Material 	{
            diffuseColor 0.2235294117647059 0.2235294117647059 0.2235294117647059
            specularColor 0.11372549019607843 0.11372549019607843 0.11372549019607843
            ambientIntensity 0.2
            transparency 0
            shininess 0.5
        }
    }
    geometry IndexedFaceSet {
        ccw TRUE
        solid FALSE
        coord DEF co Coordinate {
            point [
                -0.0826 0.6616 0.0, -0.0826 0.7932 0.0, 0.0819 0.7203 0.0, 0.0819 0.734 0.0, 0.0955 0.7241 0.0, 0.0956 0.7305 0.0, 0.1095 0.7266 0.0, 0.1095 0.7279 0.0, 0.1143 0.3183 0.0, 0.1143 0.2602 0.0, -0.193 0.2602 0.0, -0.0833 0.4665 0.0, -0.0355 0.4715 0.0, -0.1142 0.4562 0.0, 0.0036 0.4681 0.0, 0.0347 0.459 0.0, 0.1093 0.3651 0.0, -0.193 0.3161 0.0, -0.1892 0.3576 0.0, -0.1788 0.3908 0.0, 0.0589 0.4454 0.0, 0.0792 0.4263 0.0, 0.0978 0.3976 0.0, -0.1631 0.4173 0.0, -0.1414 0.4393 0.0, -0.1414 0.4393 0.0
            ]
        }
        coordIndex [
            0,1,2,-1,2,1,3,-1,2,3,4,-1,4,3,5,-1,4,5,6,-1,6,5,7,-1,8,9,10,-1,11,12,8,-1,11,8,13,-1,12,14,8,-1,8,14,15,-1,8,15,16,-1,10,17,8,-1,8,17,18,-1,8,18,19,-1,20,21,15,-1,15,21,22,-1,15,22,16,-1,19,23,8,-1,8,23,24,-1,8,24,13,-1,
        ]
    }
}
Shape{
    appearance Appearance {
        material  Material 	{
            diffuseColor 0.8509803921568627 0.8509803921568627 0.8509803921568627
            specularColor 0.4235294117647059 0.4235294117647059 0.4235294117647059
            ambientIntensity 0.2
            transparency 0
            shininess 0.5
        }
    }
    geometry IndexedFaceSet {
        ccw TRUE
        solid FALSE
        coord DEF co Coordinate {
            point [
                1.6575 0.0 -0.1969, 1.6521 0.0408 -1.5748, 1.6521 0.0408 -0.1969, 1.6364 0.0787 -1.5748, 1.6364 0.0787 -0.1969, 1.6114 0.1114 -1.5748, 1.6114 0.1114 -0.1969, 1.5787 0.1364 -1.5748, 1.5787 0.1364 -0.1969, 1.5408 0.1521 -1.5748, 1.5408 0.1521 -0.1969, 1.5 0.1575 -1.5748, 1.5 0.1575 -0.1969, 1.4592 0.1521 -1.5748, 1.4592 0.1521 -0.1969, 1.4213 0.1364 -1.5748, 1.4213 0.1364 -0.1969, 1.3886 0.1114 -1.5748, 1.3886 0.1114 -0.1969, 1.3636 0.0787 -1.5748, 1.3636 0.0787 -0.1969, 1.3479 0.0408 -1.5748, 1.3479 0.0408 -0.1969, 1.3425 0.0 -1.5748, 1.3425 0.0 -0.1969, 1.3479 -0.0408 -1.5748, 1.3479 -0.0408 -0.1969, 1.3636 -0.0787 -1.5748, 1.3636 -0.0787 -0.1969, 1.3886 -0.1114 -1.5748, 1.3886 -0.1114 -0.1969, 1.4213 -0.1364 -1.5748, 1.4213 -0.1364 -0.1969, 1.4592 -0.1521 -1.5748, 1.4592 -0.1521 -0.1969, 1.5 -0.1575 -1.5748, 1.5 -0.1575 -0.1969, 1.5408 -0.1521 -1.5748, 1.5408 -0.1521 -0.1969, 1.5787 -0.1364 -1.5748, 1.5787 -0.1364 -0.1969, 1.6114 -0.1114 -1.5748, 1.6114 -0.1114 -0.1969, 1.6364 -0.0787 -1.5748, 1.6364 -0.0787 -0.1969, 1.6521 -0.0408 -1.5748, 1.6521 -0.0408 -0.1969, 1.6575 0.0 -1.5748, 1.5 0.0 -1.5748, -1.3425 0.0 -0.1969, -1.3479 0.0408 -1.5748, -1.3479 0.0408 -0.1969, -1.3636 0.0787 -1.5748, -1.3636 0.0787 -0.1969, -1.3886 0.1114 -1.5748, -1.3886 0.1114 -0.1969, -1.4213 0.1364 -1.5748, -1.4213 0.1364 -0.1969, -1.4592 0.1521 -1.5748, -1.4592 0.1521 -0.1969, -1.5 0.1575 -1.5748, -1.5 0.1575 -0.1969, -1.5408 0.1521 -1.5748, -1.5408 0.1521 -0.1969, -1.5787 0.1364 -1.5748, -1.5787 0.1364 -0.1969, -1.6114 0.1114 -1.5748, -1.6114 0.1114 -0.1969, -1.6364 0.0787 -1.5748, -1.6364 0.0787 -0.1969, -1.6521 0.0408 -1.5748, -1.6521 0.0408 -0.1969, -1.6575 0.0 -1.5748, -1.6575 0.0 -0.1969, -1.6521 -0.0408 -1.5748, -1.6521 -0.0408 -0.1969, -1.6364 -0.0787 -1.5748, -1.6364 -0.0787 -0.1969, -1.6114 -0.1114 -1.5748, -1.6114 -0.1114 -0.1969, -1.5787 -0.1364 -1.5748, -1.5787 -0.1364 -0.1969, -1.5408 -0.1521 -1.5748, -1.5408 -0.1521 -0.1969, -1.5 -0.1575 -1.5748, -1.5 -0.1575 -0.1969, -1.4592 -0.1521 -1.5748, -1.4592 -0.1521 -0.1969, -1.4213 -0.1364 -1.5748, -1.4213 -0.1364 -0.1969, -1.3886 -0.1114 -1.5748, -1.3886 -0.1114 -0.1969, -1.3636 -0.0787 -1.5748, -1.3636 -0.0787 -0.1969, -1.3479 -0.0408 -1.5748, -1.3479 -0.0408 -0.1969, -1.3425 0.0 -1.5748, -1.5 0.0 -1.5748, -1.5 0.0 -1.5748
            ]
        }
        coordIndex [
            0,1,2,-1,2,1,3,-1,2,3,4,-1,4,3,5,-1,4,5,6,-1,6,5,7,-1,6,7,8,-1,8,7,9,-1,8,9,10,-1,10,9,11,-1,10,11,12,-1,12,11,13,-1,12,13,14,-1,14,13,15,-1,14,15,16,-1,16,15,17,-1,16,17,18,-1,18,17,19,-1,18,19,20,-1,20,19,21,-1,20,21,22,-1,22,21,23,-1,22,23,24,-1,24,23,25,-1,24,25,26,-1,26,25,27,-1,26,27,28,-1,28,27,29,-1,28,29,30,-1,30,29,31,-1,30,31,32,-1,32,31,33,-1,32,33,34,-1,34,33,35,-1,34,35,36,-1,36,35,37,-1,36,37,38,-1,38,37,39,-1,38,39,40,-1,40,39,41,-1,40,41,42,-1,42,41,43,-1,42,43,44,-1,44,43,45,-1,44,45,46,-1,46,45,47,-1,46,47,0,-1,0,47,1,-1,27,25,48,-1,48,25,23,-1,48,23,21,-1,33,31,48,-1,48,31,29,-1,48,29,27,-1,39,37,48,-1,48,37,35,-1,48,35,33,-1,45,43,48,-1,48,43,41,-1,48,41,39,-1,3,1,48,-1,48,1,47,-1,48,47,45,-1,9,7,48,-1,48,7,5,-1,48,5,3,-1,15,13,48,-1,48,13,11,-1,48,11,9,-1,21,19,48,-1,48,19,17,-1,48,17,15,-1,49,50,51,-1,51,50,52,-1,51,52,53,-1,53,52,54,-1,53,54,55,-1,55,54,56,-1,55,56,57,-1,57,56,58,-1,57,58,59,-1,59,58,60,-1,59,60,61,-1,61,60,62,-1,61,62,63,-1,63,62,64,-1,63,64,65,-1,65,64,66,-1,65,66,67,-1,67,66,68,-1,67,68,69,-1,69,68,70,-1,69,70,71,-1,71,70,72,-1,71,72,73,-1,73,72,74,-1,73,74,75,-1,75,74,76,-1,75,76,77,-1,77,76,78,-1,77,78,79,-1,79,78,80,-1,79,80,81,-1,81,80,82,-1,81,82,83,-1,83,82,84,-1,83,84,85,-1,85,84,86,-1,85,86,87,-1,87,86,88,-1,87,88,89,-1,89,88,90,-1,89,90,91,-1,91,90,92,-1,91,92,93,-1,93,92,94,-1,93,94,95,-1,95,94,96,-1,95,96,49,-1,49,96,50,-1,76,74,97,-1,97,74,72,-1,97,72,70,-1,82,80,97,-1,97,80,78,-1,97,78,76,-1,88,86,97,-1,97,86,84,-1,97,84,82,-1,94,92,97,-1,97,92,90,-1,97,90,88,-1,52,50,97,-1,97,50,96,-1,97,96,94,-1,58,56,97,-1,97,56,54,-1,97,54,52,-1,64,62,97,-1,97,62,60,-1,97,60,58,-1,70,68,97,-1,97,68,66,-1,97,66,64,-1,
        ]
    }
}
Shape{
    appearance Appearance {
        material  Material 	{
            diffuseColor 0.2235294117647059 0.2235294117647059 0.2235294117647059
            specularColor 0.11372549019607843 0.11372549019607843 0.11372549019607843
            ambientIntensity 0.2
            transparency 0
            shininess 0.5
        }
    }
    geometry IndexedFaceSet {
        ccw TRUE
        solid FALSE
        coord DEF co Coordinate {
            point [
                2.768 0.1708 2.3622, 2.7647 0.2453 2.3622, 2.758 0.2447 2.4132, 2.7275 0.5098 2.3622, 2.6783 0.7283 2.3622, 2.6719 0.7265 2.4132, 2.6424 0.8406 2.3622, 2.6035 0.9621 2.3622, 2.5972 0.9598 2.4132, 2.3581 1.46 2.3622, 2.2598 1.6115 2.3622, 2.2544 1.6076 2.4132, 1.9318 1.9923 2.3622, 1.7578 2.148 2.3622, 1.7536 2.1428 2.4132, 1.6711 2.2128 2.3622, 1.5611 2.2949 2.3622, 1.5574 2.2894 2.4132, 1.0812 2.5543 2.3622, 0.9043 2.6241 2.3622, 0.9021 2.6178 2.4132, 0.4257 2.7426 2.3622, 0.1841 2.7695 2.3622, 0.1836 2.7628 2.4132, 0.0854 2.7717 2.3622, -0.0614 2.7749 2.3622, -0.0613 2.7682 2.4132, -0.5934 2.7097 2.3622, -0.7873 2.6616 2.3622, -0.7854 2.6551 2.4132, -1.2371 2.4843 2.3622, -1.2436 2.4814 2.3622, -1.2406 2.4754 2.4132, -1.5317 2.3117 2.3622, -1.6611 2.2236 2.3622, -1.6571 2.2183 2.4132, -2.0502 1.869 2.3622, -2.1864 1.7099 2.3622, -2.1811 1.7058 2.4132, -2.4447 1.3128 2.3622, -2.4533 1.2982 2.3622, -2.4473 1.2951 2.4132, -2.5859 1.0018 2.3622, -2.6435 0.846 2.3622, -2.6371 0.844 2.4132, -2.7535 0.341 2.3622, -2.7729 0.1228 2.3622, -2.7662 0.1225 2.4132, -2.7729 0.0 2.3622, -2.7729 -0.1228 2.3622, -2.7662 -0.1225 2.4132, -2.7535 -0.341 2.3622, -2.7512 -0.3674 2.3622, -2.7445 -0.3665 2.4132, -2.6896 -0.6764 2.3622, -2.6435 -0.846 2.3622, -2.6371 -0.844 2.4132, -2.4447 -1.3128 2.3622, -2.3289 -1.51 2.3622, -2.3233 -1.5063 2.4132, -2.2632 -1.6021 2.3622, -2.1864 -1.7099 2.3622, -2.1811 -1.7058 2.4132, -1.8046 -2.1062 2.3622, -1.6611 -2.2236 2.3622, -1.6571 -2.2183 2.4132, -1.2371 -2.4843 2.3622, -1.0195 -2.5816 2.3622, -1.017 -2.5753 2.4132, -0.9216 -2.6153 2.3622, -0.7873 -2.6616 2.3622, -0.7854 -2.6551 2.4132, -0.256 -2.762 2.3622, -0.0614 -2.7749 2.3622, -0.0613 -2.7682 2.4132, 0.4257 -2.7426 2.3622, 0.4281 -2.7424 2.3622, 0.4271 -2.7357 2.4132, 0.7588 -2.6672 2.3622, 0.9043 -2.6241 2.3622, 0.9021 -2.6178 2.4132, 1.387 -2.4024 2.3622, 1.5611 -2.2949 2.3622, 1.5574 -2.2894 2.4132, 1.9318 -1.9923 2.3622, 1.9408 -1.9842 2.3622, 1.9361 -1.9794 2.4132, 2.1605 -1.7386 2.3622, 2.2598 -1.6115 2.3622, 2.2544 -1.6076 2.4132, 2.5204 -1.1596 2.3622, 2.6035 -0.9621 2.3622, 2.5972 -0.9598 2.4132, 2.5376 -0.69 2.5523, 2.4884 -0.6766 2.5591, 2.4189 -0.8939 2.5591, 2.5385 -0.454 2.5591, 2.5886 -0.463 2.5523, 2.6353 -0.4714 2.5327, 2.5686 -0.2279 2.5591, 2.6194 -0.2324 2.5523, 2.6667 -0.2366 2.5327, 2.7073 -0.2402 2.5014, 2.5787 -0.0 2.5591, 2.6297 0.0 2.5523, 2.6772 0.0 2.5327, 2.7179 0.0 2.5014, 2.7492 0.0 2.4606, 2.5686 0.2279 2.5591, 2.6194 0.2324 2.5523, 2.6667 0.2366 2.5327, 2.7073 0.2402 2.5014, 2.7385 0.243 2.4606, 2.7385 -0.243 2.4606, 2.758 -0.2447 2.4132, 2.7689 0.0 2.4132, 2.7256 -0.4875 2.4132, 2.7063 -0.4841 2.4606, 2.6755 -0.4785 2.5014, 2.6719 -0.7265 2.4132, 2.5788 -0.953 2.4606, 2.6529 -0.7213 2.4606, 2.5494 -0.9421 2.5014, 2.6227 -0.7131 2.5014, 2.5112 -0.928 2.5327, 2.5834 -0.7024 2.5327, 2.4666 -0.9115 2.5523, 2.2237 -1.3058 2.5591, 2.0996 -1.4972 2.5591, 2.2676 -1.3316 2.5523, 2.1411 -1.5268 2.5523, 2.3086 -1.3556 2.5327, 2.1797 -1.5544 2.5327, 2.3437 -1.3763 2.5014, 2.2129 -1.578 2.5014, 2.3707 -1.3921 2.4606, 2.2384 -1.5962 2.4606, 2.3876 -1.4021 2.4132, 1.6332 -1.9957 2.5591, 1.4504 -2.1322 2.5591, 1.6654 -2.0351 2.5523, 1.4791 -2.1743 2.5523, 1.6955 -2.0718 2.5327, 1.5058 -2.2136 2.5327, 1.7213 -2.1034 2.5014, 1.5287 -2.2473 2.5014, 1.7411 -2.1276 2.4606, 1.5463 -2.2731 2.4606, 1.7536 -2.1428 2.4132, 1.0523 -2.3542 2.5591, 0.8402 -2.438 2.5591, 1.0731 -2.4008 2.5523, 0.8568 -2.4862 2.5523, 1.0925 -2.4441 2.5327, 0.8722 -2.5311 2.5327, 1.1091 -2.4813 2.5014, 0.8855 -2.5696 2.5014, 1.1219 -2.5099 2.4606, 0.8957 -2.5992 2.4606, 1.1299 -2.5278 2.4132, 0.171 -2.5731 2.5591, -0.057 -2.5781 2.5591, 0.1744 -2.6239 2.5523, -0.0582 -2.629 2.5523, 0.1776 -2.6713 2.5327, -0.0592 -2.6765 2.5327, 0.1803 -2.712 2.5014, -0.0601 -2.7173 2.5014, 0.1823 -2.7432 2.4606, -0.0608 -2.7485 2.4606, 0.1836 -2.7628 2.4132, -0.5101 -2.5278 2.5591, -0.7315 -2.4728 2.5591, -0.5202 -2.5777 2.5523, -0.7459 -2.5217 2.5523, -0.5295 -2.6243 2.5327, -0.7594 -2.5672 2.5327, -0.5376 -2.6642 2.5014, -0.771 -2.6063 2.5014, -0.5438 -2.6949 2.4606, -0.7798 -2.6363 2.4606, -0.5477 -2.7142 2.4132, -1.3547 -2.1943 2.5591, -1.5433 -2.0659 2.5591, -1.3814 -2.2376 2.5523, -1.5738 -2.1068 2.5523, -1.4064 -2.278 2.5327, -1.6022 -2.1448 2.5327, -1.4278 -2.3127 2.5014, -1.6266 -2.1775 2.5014, -1.4442 -2.3393 2.4606, -1.6453 -2.2025 2.4606, -1.4546 -2.356 2.4132, -1.8829 -1.7619 2.5591, -2.0313 -1.5886 2.5591, -1.9201 -1.7967 2.5523, -2.0714 -1.62 2.5523, -1.9548 -1.8292 2.5327, -2.1088 -1.6493 2.5327, -1.9846 -1.857 2.5014, -2.1409 -1.6744 2.5014, -2.0074 -1.8784 2.4606, -2.1656 -1.6937 2.4606, -2.0218 -1.8919 2.4132, -2.377 -1.0 2.5591, -2.456 -0.786 2.5591, -2.4239 -1.0198 2.5523, -2.5046 -0.8015 2.5523, -2.4677 -1.0382 2.5327, -2.5498 -0.816 2.5327, -2.5053 -1.054 2.5014, -2.5886 -0.8284 2.5014, -2.5341 -1.0661 2.4606, -2.6184 -0.838 2.4606, -2.5522 -1.0737 2.4132, -2.5159 0.5659 2.5591, -2.456 0.786 2.5591, -2.5656 0.5771 2.5523, -2.5046 0.8015 2.5523, -2.6119 0.5875 2.5327, -2.5498 0.816 2.5327, -2.6517 0.5964 2.5014, -2.5886 0.8284 2.5014, -2.6822 0.6033 2.4606, -2.6184 0.838 2.4606, -2.7014 0.6076 2.4132, -2.1637 1.4029 2.5591, -2.0313 1.5886 2.5591, -2.2065 1.4306 2.5523, -2.0714 1.62 2.5523, -2.2463 1.4564 2.5327, -2.1088 1.6493 2.5327, -2.2805 1.4786 2.5014, -2.1409 1.6744 2.5014, -2.3068 1.4956 2.4606, -2.1656 1.6937 2.4606, -2.3233 1.5063 2.4132, -1.7199 1.9215 2.5591, -1.5433 2.0659 2.5591, -1.7538 1.9594 2.5523, -1.5738 2.1068 2.5523, -1.7855 1.9948 2.5327, -1.6022 2.1448 2.5327, -1.8127 2.0252 2.5014, -1.6266 2.1775 2.5014, -1.8336 2.0485 2.4606, -1.6453 2.2025 2.4606, -1.8467 2.0631 2.4132, -0.9472 2.3985 2.5591, -0.7315 2.4728 2.5591, -0.9659 2.4459 2.5523, -0.7459 2.5217 2.5523, -0.9833 2.49 2.5327, -0.7594 2.5672 2.5327, -0.9983 2.528 2.5014, -0.771 2.6063 2.5014, -1.0098 2.5571 2.4606, -0.7798 2.6363 2.4606, -1.017 2.5753 2.4132, -0.2847 2.563 2.5591, -0.057 2.5781 2.5591, -0.2903 2.6136 2.5523, -0.0582 2.629 2.5523, -0.2955 2.6608 2.5327, -0.0592 2.6765 2.5327, -0.3 2.7013 2.5014, -0.0601 2.7173 2.5014, -0.3035 2.7324 2.4606, -0.0608 2.7485 2.4606, -0.3057 2.752 2.4132, 0.6214 2.5028 2.5591, 0.8402 2.438 2.5591, 0.6337 2.5522 2.5523, 0.8568 2.4862 2.5523, 0.6451 2.5983 2.5327, 0.8722 2.5311 2.5327, 0.6549 2.6378 2.5014, 0.8855 2.5696 2.5014, 0.6625 2.6682 2.4606, 0.8957 2.5992 2.4606, 0.6672 2.6873 2.4132, 1.2563 2.252 2.5591, 1.4504 2.1322 2.5591, 1.2811 2.2965 2.5523, 1.4791 2.1743 2.5523, 1.3042 2.338 2.5327, 1.5058 2.2136 2.5327, 1.3241 2.3736 2.5014, 1.5287 2.2473 2.5014, 1.3393 2.4009 2.4606, 1.5463 2.2731 2.4606, 1.3489 2.4181 2.4132, 1.959 1.6769 2.5591, 2.0996 1.4972 2.5591, 1.9977 1.7101 2.5523, 2.1411 1.5268 2.5523, 2.0338 1.7409 2.5327, 2.1797 1.5544 2.5327, 2.0648 1.7674 2.5014, 2.2129 1.578 2.5014, 2.0885 1.7878 2.4606, 2.2384 1.5962 2.4606, 2.1035 1.8006 2.4132, 2.3304 1.1042 2.5591, 2.4189 0.8939 2.5591, 2.3764 1.126 2.5523, 2.4666 0.9115 2.5523, 2.4193 1.1463 2.5327, 2.5112 0.928 2.5327, 2.4562 1.1638 2.5014, 2.5494 0.9421 2.5014, 2.4844 1.1772 2.4606, 2.5788 0.953 2.4606, 2.5022 1.1856 2.4132, 2.7275 -0.5098 2.3622, 2.7322 -0.4887 2.3622, 2.7647 -0.2453 2.3622, 2.768 -0.1708 2.3622, 2.7756 0.0 2.3622, 2.6783 -0.7283 2.3622, 2.6424 -0.8406 2.3622, 2.5083 -1.1885 2.3622, 2.5022 -1.1856 2.4132, 2.4844 -1.1772 2.4606, 2.4562 -1.1638 2.5014, 2.4193 -1.1463 2.5327, 2.3764 -1.126 2.5523, 2.3304 -1.1042 2.5591, 2.3934 -1.4055 2.3622, 2.3581 -1.46 2.3622, 2.1086 -1.8049 2.3622, 2.1035 -1.8006 2.4132, 2.0885 -1.7878 2.4606, 2.0648 -1.7674 2.5014, 2.0338 -1.7409 2.5327, 1.9977 -1.7101 2.5523, 1.959 -1.6769 2.5591, 1.8032 -1.8435 2.5591, 1.8388 -1.8799 2.5523, 1.872 -1.9139 2.5327, 1.9005 -1.943 2.5014, 1.9224 -1.9654 2.4606, 1.7578 -2.148 2.3622, 1.6711 -2.2128 2.3622, 1.3522 -2.4239 2.3622, 1.3489 -2.4181 2.4132, 1.3393 -2.4009 2.4606, 1.3241 -2.3736 2.5014, 1.3042 -2.338 2.5327, 1.2811 -2.2965 2.5523, 1.2563 -2.252 2.5591, 1.1327 -2.534 2.3622, 1.0812 -2.5543 2.3622, 0.6688 -2.6938 2.3622, 0.6672 -2.6873 2.4132, 0.6625 -2.6682 2.4606, 0.6549 -2.6378 2.5014, 0.6451 -2.5983 2.5327, 0.6337 -2.5522 2.5523, 0.6214 -2.5028 2.5591, 0.3978 -2.5479 2.5591, 0.4056 -2.5982 2.5523, 0.413 -2.6451 2.5327, 0.4192 -2.6854 2.5014, 0.4241 -2.7163 2.4606, 0.1841 -2.7695 2.3622, 0.0854 -2.7717 2.3622, -0.3064 -2.7586 2.3622, -0.3057 -2.752 2.4132, -0.3035 -2.7324 2.4606, -0.3 -2.7013 2.5014, -0.2955 -2.6608 2.5327, -0.2903 -2.6136 2.5523, -0.2847 -2.563 2.5591, -0.549 -2.7208 2.3622, -0.5934 -2.7097 2.3622, -1.0098 -2.5571 2.4606, -0.9983 -2.528 2.5014, -0.9833 -2.49 2.5327, -0.9659 -2.4459 2.5523, -0.9472 -2.3985 2.5591, -1.2436 -2.4814 2.3622, -1.2406 -2.4754 2.4132, -1.2318 -2.4578 2.4606, -1.2178 -2.4298 2.5014, -1.1995 -2.3934 2.5327, -1.1783 -2.3509 2.5523, -1.1554 -2.3054 2.5591, -1.4581 -2.3618 2.3622, -1.5317 -2.3117 2.3622, -1.8511 -2.0681 2.3622, -1.8467 -2.0631 2.4132, -1.8336 -2.0485 2.4606, -1.8127 -2.0252 2.5014, -1.7855 -1.9948 2.5327, -1.7538 -1.9594 2.5523, -1.7199 -1.9215 2.5591, -2.0267 -1.8964 2.3622, -2.0502 -1.869 2.3622, -2.3068 -1.4956 2.4606, -2.2805 -1.4786 2.5014, -2.2463 -1.4564 2.5327, -2.2065 -1.4306 2.5523, -2.1637 -1.4029 2.5591, -2.4533 -1.2982 2.3622, -2.4473 -1.2951 2.4132, -2.4299 -1.2859 2.4606, -2.4023 -1.2713 2.5014, -2.3663 -1.2522 2.5327, -2.3243 -1.23 2.5523, -2.2793 -1.2062 2.5591, -2.5584 -1.0763 2.3622, -2.5859 -1.0018 2.3622, -2.7079 -0.6091 2.3622, -2.7014 -0.6076 2.4132, -2.6822 -0.6033 2.4606, -2.6517 -0.5964 2.5014, -2.6119 -0.5875 2.5327, -2.5656 -0.5771 2.5523, -2.5159 -0.5659 2.5591, -2.5561 -0.3413 2.5591, -2.6066 -0.348 2.5523, -2.6536 -0.3543 2.5327, -2.694 -0.3597 2.5014, -2.725 -0.3639 2.4606, -2.7465 -0.1216 2.4606, -2.7153 -0.1202 2.5014, -2.6745 -0.1184 2.5327, -2.6271 -0.1163 2.5523, -2.5762 -0.1141 2.5591, -2.7465 0.1216 2.4606, -2.7153 0.1202 2.5014, -2.6745 0.1184 2.5327, -2.6271 0.1163 2.5523, -2.5762 0.1141 2.5591, -2.7512 0.3674 2.3622, -2.7445 0.3665 2.4132, -2.725 0.3639 2.4606, -2.694 0.3597 2.5014, -2.6536 0.3543 2.5327, -2.6066 0.348 2.5523, -2.5561 0.3413 2.5591, -2.7079 0.6091 2.3622, -2.6896 0.6764 2.3622, -2.5584 1.0763 2.3622, -2.5522 1.0737 2.4132, -2.5341 1.0661 2.4606, -2.5053 1.054 2.5014, -2.4677 1.0382 2.5327, -2.4239 1.0198 2.5523, -2.377 1.0 2.5591, -2.2793 1.2062 2.5591, -2.3243 1.23 2.5523, -2.3663 1.2522 2.5327, -2.4023 1.2713 2.5014, -2.4299 1.2859 2.4606, -2.3289 1.51 2.3622, -2.2632 1.6021 2.3622, -2.0267 1.8964 2.3622, -2.0218 1.8919 2.4132, -2.0074 1.8784 2.4606, -1.9846 1.857 2.5014, -1.9548 1.8292 2.5327, -1.9201 1.7967 2.5523, -1.8829 1.7619 2.5591, -1.8511 2.0681 2.3622, -1.8046 2.1062 2.3622, -1.4581 2.3618 2.3622, -1.4546 2.356 2.4132, -1.4442 2.3393 2.4606, -1.4278 2.3127 2.5014, -1.4064 2.278 2.5327, -1.3814 2.2376 2.5523, -1.3547 2.1943 2.5591, -1.1554 2.3054 2.5591, -1.1783 2.3509 2.5523, -1.1995 2.3934 2.5327, -1.2178 2.4298 2.5014, -1.2318 2.4578 2.4606, -1.0195 2.5816 2.3622, -0.9216 2.6153 2.3622, -0.549 2.7208 2.3622, -0.5477 2.7142 2.4132, -0.5438 2.6949 2.4606, -0.5376 2.6642 2.5014, -0.5295 2.6243 2.5327, -0.5202 2.5777 2.5523, -0.5101 2.5278 2.5591, -0.3064 2.7586 2.3622, -0.256 2.762 2.3622, 0.1823 2.7432 2.4606, 0.1803 2.712 2.5014, 0.1776 2.6713 2.5327, 0.1744 2.6239 2.5523, 0.171 2.5731 2.5591, 0.4281 2.7424 2.3622, 0.4271 2.7357 2.4132, 0.4241 2.7163 2.4606, 0.4192 2.6854 2.5014, 0.413 2.6451 2.5327, 0.4056 2.5982 2.5523, 0.3978 2.5479 2.5591, 0.6688 2.6938 2.3622, 0.7588 2.6672 2.3622, 1.1327 2.534 2.3622, 1.1299 2.5278 2.4132, 1.1219 2.5099 2.4606, 1.1091 2.4813 2.5014, 1.0925 2.4441 2.5327, 1.0731 2.4008 2.5523, 1.0523 2.3542 2.5591, 1.3522 2.4239 2.3622, 1.387 2.4024 2.3622, 1.7411 2.1276 2.4606, 1.7213 2.1034 2.5014, 1.6955 2.0718 2.5327, 1.6654 2.0351 2.5523, 1.6332 1.9957 2.5591, 1.9408 1.9842 2.3622, 1.9361 1.9794 2.4132, 1.9224 1.9654 2.4606, 1.9005 1.943 2.5014, 1.872 1.9139 2.5327, 1.8388 1.8799 2.5523, 1.8032 1.8435 2.5591, 2.1086 1.8049 2.3622, 2.1605 1.7386 2.3622, 2.3934 1.4055 2.3622, 2.3876 1.4021 2.4132, 2.3707 1.3921 2.4606, 2.3437 1.3763 2.5014, 2.3086 1.3556 2.5327, 2.2676 1.3316 2.5523, 2.2237 1.3058 2.5591, 2.5083 1.1885 2.3622, 2.5204 1.1596 2.3622, 2.6529 0.7213 2.4606, 2.6227 0.7131 2.5014, 2.5834 0.7024 2.5327, 2.5376 0.69 2.5523, 2.4884 0.6766 2.5591, 2.7322 0.4887 2.3622, 2.7256 0.4875 2.4132, 2.7063 0.4841 2.4606, 2.6755 0.4785 2.5014, 2.6353 0.4714 2.5327, 2.5886 0.463 2.5523, 2.5385 0.454 2.5591, 2.5385 0.454 2.5591
            ]
        }
        coordIndex [
            0,1,2,-1,3,4,5,-1,6,7,8,-1,9,10,11,-1,12,13,14,-1,15,16,17,-1,18,19,20,-1,21,22,23,-1,24,25,26,-1,27,28,29,-1,30,31,32,-1,33,34,35,-1,36,37,38,-1,39,40,41,-1,42,43,44,-1,45,46,47,-1,48,49,50,-1,51,52,53,-1,54,55,56,-1,57,58,59,-1,60,61,62,-1,63,64,65,-1,66,67,68,-1,69,70,71,-1,72,73,74,-1,75,76,77,-1,78,79,80,-1,81,82,83,-1,84,85,86,-1,87,88,89,-1,90,91,92,-1,93,94,95,-1,96,94,97,-1,97,94,93,-1,97,93,98,-1,99,96,100,-1,100,96,97,-1,100,97,101,-1,101,97,98,-1,101,98,102,-1,103,99,104,-1,104,99,100,-1,104,100,105,-1,105,100,101,-1,105,101,106,-1,106,101,102,-1,106,102,107,-1,108,103,109,-1,109,103,104,-1,109,104,110,-1,110,104,105,-1,110,105,111,-1,111,105,106,-1,111,106,112,-1,112,106,107,-1,112,107,2,-1,113,114,115,-1,116,114,117,-1,117,114,113,-1,117,113,118,-1,92,119,120,-1,120,119,121,-1,120,121,122,-1,122,121,123,-1,122,123,124,-1,124,123,125,-1,124,125,126,-1,127,128,129,-1,129,128,130,-1,129,130,131,-1,131,130,132,-1,131,132,133,-1,133,132,134,-1,133,134,135,-1,135,134,136,-1,135,136,137,-1,137,136,89,-1,138,139,140,-1,140,139,141,-1,140,141,142,-1,142,141,143,-1,142,143,144,-1,144,143,145,-1,144,145,146,-1,146,145,147,-1,146,147,148,-1,148,147,83,-1,149,150,151,-1,151,150,152,-1,151,152,153,-1,153,152,154,-1,153,154,155,-1,155,154,156,-1,155,156,157,-1,157,156,158,-1,157,158,159,-1,159,158,80,-1,160,161,162,-1,162,161,163,-1,162,163,164,-1,164,163,165,-1,164,165,166,-1,166,165,167,-1,166,167,168,-1,168,167,169,-1,168,169,170,-1,170,169,74,-1,171,172,173,-1,173,172,174,-1,173,174,175,-1,175,174,176,-1,175,176,177,-1,177,176,178,-1,177,178,179,-1,179,178,180,-1,179,180,181,-1,181,180,71,-1,182,183,184,-1,184,183,185,-1,184,185,186,-1,186,185,187,-1,186,187,188,-1,188,187,189,-1,188,189,190,-1,190,189,191,-1,190,191,192,-1,192,191,65,-1,193,194,195,-1,195,194,196,-1,195,196,197,-1,197,196,198,-1,197,198,199,-1,199,198,200,-1,199,200,201,-1,201,200,202,-1,201,202,203,-1,203,202,62,-1,204,205,206,-1,206,205,207,-1,206,207,208,-1,208,207,209,-1,208,209,210,-1,210,209,211,-1,210,211,212,-1,212,211,213,-1,212,213,214,-1,214,213,56,-1,215,216,217,-1,217,216,218,-1,217,218,219,-1,219,218,220,-1,219,220,221,-1,221,220,222,-1,221,222,223,-1,223,222,224,-1,223,224,225,-1,225,224,44,-1,226,227,228,-1,228,227,229,-1,228,229,230,-1,230,229,231,-1,230,231,232,-1,232,231,233,-1,232,233,234,-1,234,233,235,-1,234,235,236,-1,236,235,38,-1,237,238,239,-1,239,238,240,-1,239,240,241,-1,241,240,242,-1,241,242,243,-1,243,242,244,-1,243,244,245,-1,245,244,246,-1,245,246,247,-1,247,246,35,-1,248,249,250,-1,250,249,251,-1,250,251,252,-1,252,251,253,-1,252,253,254,-1,254,253,255,-1,254,255,256,-1,256,255,257,-1,256,257,258,-1,258,257,29,-1,259,260,261,-1,261,260,262,-1,261,262,263,-1,263,262,264,-1,263,264,265,-1,265,264,266,-1,265,266,267,-1,267,266,268,-1,267,268,269,-1,269,268,26,-1,270,271,272,-1,272,271,273,-1,272,273,274,-1,274,273,275,-1,274,275,276,-1,276,275,277,-1,276,277,278,-1,278,277,279,-1,278,279,280,-1,280,279,20,-1,281,282,283,-1,283,282,284,-1,283,284,285,-1,285,284,286,-1,285,286,287,-1,287,286,288,-1,287,288,289,-1,289,288,290,-1,289,290,291,-1,291,290,17,-1,292,293,294,-1,294,293,295,-1,294,295,296,-1,296,295,297,-1,296,297,298,-1,298,297,299,-1,298,299,300,-1,300,299,301,-1,300,301,302,-1,302,301,11,-1,303,304,305,-1,305,304,306,-1,305,306,307,-1,307,306,308,-1,307,308,309,-1,309,308,310,-1,309,310,311,-1,311,310,312,-1,311,312,313,-1,313,312,8,-1,314,315,116,-1,116,315,316,-1,116,316,114,-1,114,316,317,-1,114,317,115,-1,115,317,318,-1,319,314,119,-1,119,314,116,-1,119,116,121,-1,121,116,117,-1,121,117,123,-1,123,117,118,-1,123,118,125,-1,92,91,119,-1,119,91,320,-1,119,320,319,-1,321,90,322,-1,322,90,92,-1,322,92,323,-1,323,92,120,-1,323,120,324,-1,324,120,122,-1,324,122,325,-1,325,122,124,-1,325,124,326,-1,326,124,126,-1,326,126,327,-1,327,126,95,-1,327,127,326,-1,326,127,129,-1,326,129,325,-1,325,129,131,-1,325,131,324,-1,324,131,133,-1,324,133,323,-1,323,133,135,-1,323,135,322,-1,322,135,137,-1,322,137,321,-1,321,137,328,-1,89,88,137,-1,137,88,329,-1,137,329,328,-1,330,87,331,-1,331,87,89,-1,331,89,332,-1,332,89,136,-1,332,136,333,-1,333,136,134,-1,333,134,334,-1,334,134,132,-1,334,132,335,-1,335,132,130,-1,335,130,336,-1,336,130,128,-1,336,337,335,-1,335,337,338,-1,335,338,334,-1,334,338,339,-1,334,339,333,-1,333,339,340,-1,333,340,332,-1,332,340,341,-1,332,341,331,-1,331,341,86,-1,331,86,330,-1,330,86,85,-1,342,84,148,-1,148,84,86,-1,148,86,146,-1,146,86,341,-1,146,341,144,-1,144,341,340,-1,144,340,142,-1,142,340,339,-1,142,339,140,-1,140,339,338,-1,140,338,138,-1,138,338,337,-1,83,82,148,-1,148,82,343,-1,148,343,342,-1,344,81,345,-1,345,81,83,-1,345,83,346,-1,346,83,147,-1,346,147,347,-1,347,147,145,-1,347,145,348,-1,348,145,143,-1,348,143,349,-1,349,143,141,-1,349,141,350,-1,350,141,139,-1,350,149,349,-1,349,149,151,-1,349,151,348,-1,348,151,153,-1,348,153,347,-1,347,153,155,-1,347,155,346,-1,346,155,157,-1,346,157,345,-1,345,157,159,-1,345,159,344,-1,344,159,351,-1,80,79,159,-1,159,79,352,-1,159,352,351,-1,353,78,354,-1,354,78,80,-1,354,80,355,-1,355,80,158,-1,355,158,356,-1,356,158,156,-1,356,156,357,-1,357,156,154,-1,357,154,358,-1,358,154,152,-1,358,152,359,-1,359,152,150,-1,359,360,358,-1,358,360,361,-1,358,361,357,-1,357,361,362,-1,357,362,356,-1,356,362,363,-1,356,363,355,-1,355,363,364,-1,355,364,354,-1,354,364,77,-1,354,77,353,-1,353,77,76,-1,365,75,170,-1,170,75,77,-1,170,77,168,-1,168,77,364,-1,168,364,166,-1,166,364,363,-1,166,363,164,-1,164,363,362,-1,164,362,162,-1,162,362,361,-1,162,361,160,-1,160,361,360,-1,74,73,170,-1,170,73,366,-1,170,366,365,-1,367,72,368,-1,368,72,74,-1,368,74,369,-1,369,74,169,-1,369,169,370,-1,370,169,167,-1,370,167,371,-1,371,167,165,-1,371,165,372,-1,372,165,163,-1,372,163,373,-1,373,163,161,-1,373,171,372,-1,372,171,173,-1,372,173,371,-1,371,173,175,-1,371,175,370,-1,370,175,177,-1,370,177,369,-1,369,177,179,-1,369,179,368,-1,368,179,181,-1,368,181,367,-1,367,181,374,-1,71,70,181,-1,181,70,375,-1,181,375,374,-1,67,69,68,-1,68,69,71,-1,68,71,376,-1,376,71,180,-1,376,180,377,-1,377,180,178,-1,377,178,378,-1,378,178,176,-1,378,176,379,-1,379,176,174,-1,379,174,380,-1,380,174,172,-1,381,66,382,-1,382,66,68,-1,382,68,383,-1,383,68,376,-1,383,376,384,-1,384,376,377,-1,384,377,385,-1,385,377,378,-1,385,378,386,-1,386,378,379,-1,386,379,387,-1,387,379,380,-1,387,182,386,-1,386,182,184,-1,386,184,385,-1,385,184,186,-1,385,186,384,-1,384,186,188,-1,384,188,383,-1,383,188,190,-1,383,190,382,-1,382,190,192,-1,382,192,381,-1,381,192,388,-1,65,64,192,-1,192,64,389,-1,192,389,388,-1,390,63,391,-1,391,63,65,-1,391,65,392,-1,392,65,191,-1,392,191,393,-1,393,191,189,-1,393,189,394,-1,394,189,187,-1,394,187,395,-1,395,187,185,-1,395,185,396,-1,396,185,183,-1,396,193,395,-1,395,193,195,-1,395,195,394,-1,394,195,197,-1,394,197,393,-1,393,197,199,-1,393,199,392,-1,392,199,201,-1,392,201,391,-1,391,201,203,-1,391,203,390,-1,390,203,397,-1,62,61,203,-1,203,61,398,-1,203,398,397,-1,58,60,59,-1,59,60,62,-1,59,62,399,-1,399,62,202,-1,399,202,400,-1,400,202,200,-1,400,200,401,-1,401,200,198,-1,401,198,402,-1,402,198,196,-1,402,196,403,-1,403,196,194,-1,404,57,405,-1,405,57,59,-1,405,59,406,-1,406,59,399,-1,406,399,407,-1,407,399,400,-1,407,400,408,-1,408,400,401,-1,408,401,409,-1,409,401,402,-1,409,402,410,-1,410,402,403,-1,410,204,409,-1,409,204,206,-1,409,206,408,-1,408,206,208,-1,408,208,407,-1,407,208,210,-1,407,210,406,-1,406,210,212,-1,406,212,405,-1,405,212,214,-1,405,214,404,-1,404,214,411,-1,56,55,214,-1,214,55,412,-1,214,412,411,-1,413,54,414,-1,414,54,56,-1,414,56,415,-1,415,56,213,-1,415,213,416,-1,416,213,211,-1,416,211,417,-1,417,211,209,-1,417,209,418,-1,418,209,207,-1,418,207,419,-1,419,207,205,-1,419,420,418,-1,418,420,421,-1,418,421,417,-1,417,421,422,-1,417,422,416,-1,416,422,423,-1,416,423,415,-1,415,423,424,-1,415,424,414,-1,414,424,53,-1,414,53,413,-1,413,53,52,-1,49,51,50,-1,50,51,53,-1,50,53,425,-1,425,53,424,-1,425,424,426,-1,426,424,423,-1,426,423,427,-1,427,423,422,-1,427,422,428,-1,428,422,421,-1,428,421,429,-1,429,421,420,-1,46,48,47,-1,47,48,50,-1,47,50,430,-1,430,50,425,-1,430,425,431,-1,431,425,426,-1,431,426,432,-1,432,426,427,-1,432,427,433,-1,433,427,428,-1,433,428,434,-1,434,428,429,-1,435,45,436,-1,436,45,47,-1,436,47,437,-1,437,47,430,-1,437,430,438,-1,438,430,431,-1,438,431,439,-1,439,431,432,-1,439,432,440,-1,440,432,433,-1,440,433,441,-1,441,433,434,-1,441,215,440,-1,440,215,217,-1,440,217,439,-1,439,217,219,-1,439,219,438,-1,438,219,221,-1,438,221,437,-1,437,221,223,-1,437,223,436,-1,436,223,225,-1,436,225,435,-1,435,225,442,-1,44,43,225,-1,225,43,443,-1,225,443,442,-1,444,42,445,-1,445,42,44,-1,445,44,446,-1,446,44,224,-1,446,224,447,-1,447,224,222,-1,447,222,448,-1,448,222,220,-1,448,220,449,-1,449,220,218,-1,449,218,450,-1,450,218,216,-1,450,451,449,-1,449,451,452,-1,449,452,448,-1,448,452,453,-1,448,453,447,-1,447,453,454,-1,447,454,446,-1,446,454,455,-1,446,455,445,-1,445,455,41,-1,445,41,444,-1,444,41,40,-1,456,39,236,-1,236,39,41,-1,236,41,234,-1,234,41,455,-1,234,455,232,-1,232,455,454,-1,232,454,230,-1,230,454,453,-1,230,453,228,-1,228,453,452,-1,228,452,226,-1,226,452,451,-1,38,37,236,-1,236,37,457,-1,236,457,456,-1,458,36,459,-1,459,36,38,-1,459,38,460,-1,460,38,235,-1,460,235,461,-1,461,235,233,-1,461,233,462,-1,462,233,231,-1,462,231,463,-1,463,231,229,-1,463,229,464,-1,464,229,227,-1,464,237,463,-1,463,237,239,-1,463,239,462,-1,462,239,241,-1,462,241,461,-1,461,241,243,-1,461,243,460,-1,460,243,245,-1,460,245,459,-1,459,245,247,-1,459,247,458,-1,458,247,465,-1,35,34,247,-1,247,34,466,-1,247,466,465,-1,467,33,468,-1,468,33,35,-1,468,35,469,-1,469,35,246,-1,469,246,470,-1,470,246,244,-1,470,244,471,-1,471,244,242,-1,471,242,472,-1,472,242,240,-1,472,240,473,-1,473,240,238,-1,473,474,472,-1,472,474,475,-1,472,475,471,-1,471,475,476,-1,471,476,470,-1,470,476,477,-1,470,477,469,-1,469,477,478,-1,469,478,468,-1,468,478,32,-1,468,32,467,-1,467,32,31,-1,479,30,258,-1,258,30,32,-1,258,32,256,-1,256,32,478,-1,256,478,254,-1,254,478,477,-1,254,477,252,-1,252,477,476,-1,252,476,250,-1,250,476,475,-1,250,475,248,-1,248,475,474,-1,29,28,258,-1,258,28,480,-1,258,480,479,-1,481,27,482,-1,482,27,29,-1,482,29,483,-1,483,29,257,-1,483,257,484,-1,484,257,255,-1,484,255,485,-1,485,255,253,-1,485,253,486,-1,486,253,251,-1,486,251,487,-1,487,251,249,-1,487,259,486,-1,486,259,261,-1,486,261,485,-1,485,261,263,-1,485,263,484,-1,484,263,265,-1,484,265,483,-1,483,265,267,-1,483,267,482,-1,482,267,269,-1,482,269,481,-1,481,269,488,-1,26,25,269,-1,269,25,489,-1,269,489,488,-1,22,24,23,-1,23,24,26,-1,23,26,490,-1,490,26,268,-1,490,268,491,-1,491,268,266,-1,491,266,492,-1,492,266,264,-1,492,264,493,-1,493,264,262,-1,493,262,494,-1,494,262,260,-1,495,21,496,-1,496,21,23,-1,496,23,497,-1,497,23,490,-1,497,490,498,-1,498,490,491,-1,498,491,499,-1,499,491,492,-1,499,492,500,-1,500,492,493,-1,500,493,501,-1,501,493,494,-1,501,270,500,-1,500,270,272,-1,500,272,499,-1,499,272,274,-1,499,274,498,-1,498,274,276,-1,498,276,497,-1,497,276,278,-1,497,278,496,-1,496,278,280,-1,496,280,495,-1,495,280,502,-1,20,19,280,-1,280,19,503,-1,280,503,502,-1,504,18,505,-1,505,18,20,-1,505,20,506,-1,506,20,279,-1,506,279,507,-1,507,279,277,-1,507,277,508,-1,508,277,275,-1,508,275,509,-1,509,275,273,-1,509,273,510,-1,510,273,271,-1,510,281,509,-1,509,281,283,-1,509,283,508,-1,508,283,285,-1,508,285,507,-1,507,285,287,-1,507,287,506,-1,506,287,289,-1,506,289,505,-1,505,289,291,-1,505,291,504,-1,504,291,511,-1,17,16,291,-1,291,16,512,-1,291,512,511,-1,13,15,14,-1,14,15,17,-1,14,17,513,-1,513,17,290,-1,513,290,514,-1,514,290,288,-1,514,288,515,-1,515,288,286,-1,515,286,516,-1,516,286,284,-1,516,284,517,-1,517,284,282,-1,518,12,519,-1,519,12,14,-1,519,14,520,-1,520,14,513,-1,520,513,521,-1,521,513,514,-1,521,514,522,-1,522,514,515,-1,522,515,523,-1,523,515,516,-1,523,516,524,-1,524,516,517,-1,524,292,523,-1,523,292,294,-1,523,294,522,-1,522,294,296,-1,522,296,521,-1,521,296,298,-1,521,298,520,-1,520,298,300,-1,520,300,519,-1,519,300,302,-1,519,302,518,-1,518,302,525,-1,11,10,302,-1,302,10,526,-1,302,526,525,-1,527,9,528,-1,528,9,11,-1,528,11,529,-1,529,11,301,-1,529,301,530,-1,530,301,299,-1,530,299,531,-1,531,299,297,-1,531,297,532,-1,532,297,295,-1,532,295,533,-1,533,295,293,-1,533,303,532,-1,532,303,305,-1,532,305,531,-1,531,305,307,-1,531,307,530,-1,530,307,309,-1,530,309,529,-1,529,309,311,-1,529,311,528,-1,528,311,313,-1,528,313,527,-1,527,313,534,-1,8,7,313,-1,313,7,535,-1,313,535,534,-1,4,6,5,-1,5,6,8,-1,5,8,536,-1,536,8,312,-1,536,312,537,-1,537,312,310,-1,537,310,538,-1,538,310,308,-1,538,308,539,-1,539,308,306,-1,539,306,540,-1,540,306,304,-1,541,3,542,-1,542,3,5,-1,542,5,543,-1,543,5,536,-1,543,536,544,-1,544,536,537,-1,544,537,545,-1,545,537,538,-1,545,538,546,-1,546,538,539,-1,546,539,547,-1,547,539,540,-1,547,108,546,-1,546,108,109,-1,546,109,545,-1,545,109,110,-1,545,110,544,-1,544,110,111,-1,544,111,543,-1,543,111,112,-1,543,112,542,-1,542,112,2,-1,542,2,541,-1,541,2,1,-1,95,126,93,-1,93,126,125,-1,93,125,98,-1,98,125,118,-1,98,118,102,-1,102,118,113,-1,102,113,107,-1,107,113,115,-1,107,115,2,-1,2,115,318,-1,2,318,0,-1,
        ]
    }
}